<?xml version="1.0" standalone="no"?>
<!DOCTYPE svg PUBLIC "-//W3C//DTD SVG 1.1//EN" "http://www.w3.org/Graphics/SVG/1.1/DTD/svg11.dtd" >
<svg xmlns="http://www.w3.org/2000/svg" xmlns:xlink="http://www.w3.org/1999/xlink" version="1.1">
<metadata>
Created by FontForge 20201107 at Mon Nov 30 15:26:10 2015
 By 
Copyright (c) 2013 by Superstorefont. All rights reserved.
</metadata>
<defs>
<font id="QuanSlimR-Regular" horiz-adv-x="175" >
  <font-face 
    font-family="Quan Slim Rounded"
    font-weight="400"
    font-stretch="normal"
    units-per-em="1000"
    panose-1="2 0 0 0 0 0 0 0 0 0"
    ascent="716"
    descent="-284"
    x-height="400"
    cap-height="500"
    bbox="-60 -195 804 717"
    underline-thickness="35"
    underline-position="-140"
    unicode-range="U+0020-FB02"
  />
<missing-glyph horiz-adv-x="569" 
d="M30 0v628h509v-628h-509zM76 35q0 9 -8 11h8v-11zM493 590q0 -8 8 -8h-8v8zM501 46q-8 -2 -8 -9v9h8zM68 582q6 0 8 8v-8h-8zM76 46h417v536h-417v-536z" />
    <glyph glyph-name="fi" unicode="fi" horiz-adv-x="391" 
d="M137 32q0 -14 -9.5 -23t-23.5 -9t-23 9t-9 23v310h-33q-12 0 -20.5 9t-8.5 20q0 12 8.5 20.5t20.5 8.5h33v10q0 42 3 69t13 42.5t27.5 22t46.5 6.5q6 0 15 -0.5t23 -4.5q21 -5 21 -27q0 -12 -7.5 -20t-19.5 -8q-9 2 -13.5 2h-10.5q-12 0 -19 -4t-10 -13t-3.5 -25
t-0.5 -40v-10h52q12 0 20.5 -8.5t8.5 -20.5q0 -11 -8.5 -20t-20.5 -9h-52v-310zM271 368q0 14 9 23t23 9t23.5 -9t9.5 -23v-336q0 -14 -9.5 -23t-23.5 -9t-23 9t-9 23v336zM271 493q0 14 9 23t23 9t23.5 -9t9.5 -23v-20q0 -14 -9.5 -23t-23.5 -9t-23 9t-9 23v20z" />
    <glyph glyph-name="fl" unicode="fl" horiz-adv-x="391" 
d="M137 32q0 -14 -9.5 -23t-23.5 -9t-23 9t-9 23v310h-33q-12 0 -20.5 9t-8.5 20q0 12 8.5 20.5t20.5 8.5h33v10q0 42 3 69t13 42.5t27.5 22t46.5 6.5q6 0 15 -0.5t23 -4.5q21 -5 21 -27q0 -12 -7.5 -20t-19.5 -8q-9 2 -13.5 2h-10.5q-12 0 -19 -4t-10 -13t-3.5 -25
t-0.5 -40v-10h52q12 0 20.5 -8.5t8.5 -20.5q0 -11 -8.5 -20t-20.5 -9h-52v-310zM271 504q0 14 9 23t23 9t23.5 -9t9.5 -23v-472q0 -14 -9.5 -23t-23.5 -9t-23 9t-9 23v472z" />
    <glyph glyph-name=".notdef" horiz-adv-x="569" 
d="M30 0v628h509v-628h-509zM76 35q0 9 -8 11h8v-11zM493 590q0 -8 8 -8h-8v8zM501 46q-8 -2 -8 -9v9h8zM68 582q6 0 8 8v-8h-8zM76 46h417v536h-417v-536z" />
    <glyph glyph-name=".null" horiz-adv-x="0" 
 />
    <glyph glyph-name="nonmarkingreturn" horiz-adv-x="283" 
 />
    <glyph glyph-name="space" unicode=" " horiz-adv-x="148" 
 />
    <glyph glyph-name="exclam" unicode="!" horiz-adv-x="165" 
d="M56 157q0 48 -0.5 85t-1 72.5t-1.5 72t-2 82.5q0 13 9 22t22 9q12 0 21.5 -9t9.5 -22q-1 -46 -2 -82.5t-1.5 -72t-1 -72.5t-0.5 -85q0 -11 -7.5 -18.5t-18.5 -7.5t-18.5 7.5t-7.5 18.5zM50 32q0 -14 9 -23t23 -9t23.5 9t9.5 23v20q0 14 -9.5 23t-23.5 9t-23 -9t-9 -23
v-20z" />
    <glyph glyph-name="quotedbl" unicode="&#x22;" horiz-adv-x="250" 
d="M104 411q0 -10 -7 -16t-18 -6q-22 0 -22 22l-7 94q0 13 9 22t21 9q13 0 22 -9t9 -22zM193 411q0 -10 -7 -16t-18 -6q-22 0 -22 22l-7 94q0 13 9 22t21 9q13 0 22 -9t9 -22z" />
    <glyph glyph-name="numbersign" unicode="#" horiz-adv-x="522" 
d="M316 323h-84l-40 -129h85zM397 381h54q10 -2 15.5 -10t5.5 -18q0 -12 -7.5 -21t-19.5 -9h-65l-40 -129h70q10 -2 15.5 -10t5.5 -18q0 -12 -7.5 -21t-19.5 -9h-81l-36 -116q-7 -20 -28 -20q-13 0 -22 9t-9 22q0 3 2 9l29 96h-84l-36 -116q-7 -20 -28 -20q-13 0 -22 9
t-9 22q0 3 2 9l29 96h-34q-12 0 -19.5 9t-7.5 21q0 10 5.5 18t15.5 10h58l39 129h-50q-12 0 -19.5 9t-7.5 21q0 10 5.5 18t15.5 10h73l30 99q7 20 29 20q13 0 22 -9t9 -22q0 -3 -2 -9l-24 -79h84l30 99q7 20 29 20q13 0 22 -9t9 -22q0 -3 -2 -9z" />
    <glyph glyph-name="dollar" unicode="$" horiz-adv-x="411" 
d="M115 367q0 -23 16 -38t40 -26v140q-37 -8 -46.5 -28t-9.5 -48zM236 56q25 5 42.5 24t17.5 63q0 23 -17 37.5t-43 25.5v-150zM171 527q0 14 9 23.5t23 9.5t23.5 -9.5t9.5 -23.5v-24q23 -2 43 -4.5t40 -7.5q10 -2 15.5 -10t5.5 -18q0 -12 -7.5 -20.5t-19.5 -8.5
q-15 5 -34 7.5t-43 3.5v-167q23 -9 45.5 -19.5t40 -26t28.5 -37t11 -52.5q0 -44 -9.5 -71.5t-26.5 -44t-40 -23.5t-49 -9v-24q0 -14 -9.5 -23.5t-23.5 -9.5t-23 9.5t-9 23.5v24q-28 2 -55 8.5t-49 20.5q-9 5 -13 13t-4 17q0 13 9 22.5t23 9.5q33 -18 53 -24.5t36 -8.5v177
q-23 9 -44.5 20t-38.5 26.5t-27.5 37.5t-10.5 53q0 68 27.5 99t93.5 36v25z" />
    <glyph glyph-name="percent" unicode="%" horiz-adv-x="561" 
d="M143 266q-38 0 -65.5 16t-27.5 58v86q0 19 8 33t21 23t29.5 13.5t34.5 4.5t34.5 -4.5t29.5 -13.5t21 -23t8 -33v-86q0 -42 -27.5 -58t-65.5 -16zM143 456q-28 0 -35.5 -10t-7.5 -20v-86q0 -14 7.5 -21.5t35.5 -7.5t35.5 7.5t7.5 21.5v86q0 10 -7.5 20t-35.5 10zM418 0
q-38 0 -65.5 16t-27.5 58v86q0 19 8 33t21 23t29.5 13.5t34.5 4.5t34.5 -4.5t29.5 -13.5t21 -23t8 -33v-86q0 -42 -27.5 -58t-65.5 -16zM418 190q-28 0 -35.5 -10t-7.5 -20v-86q0 -14 7.5 -21.5t35.5 -7.5t35.5 7.5t7.5 21.5v86q0 10 -7.5 20t-35.5 10zM404 457q3 6 3 12
q0 12 -9 21.5t-21 9.5q-19 0 -27 -17l-191 -442q-3 -6 -3 -13q0 -12 8 -20t20 -8q9 0 15.5 4.5t10.5 11.5z" />
    <glyph glyph-name="ampersand" unicode="&#x26;" horiz-adv-x="440" 
d="M176 366q0 -24 2.5 -46t13.5 -43q37 14 54 34t17 55q0 41 -5 61t-34 20q-18 0 -28 -5t-14.5 -15t-5 -25t-0.5 -36zM207 53q13 0 30 4.5t29 18.5q-17 15 -31.5 33t-26.5 36t-21.5 34.5t-16.5 29.5q-36 -16 -45.5 -36t-9.5 -46q0 -16 2 -29.5t11 -23.5t27.5 -15.5
t51.5 -5.5zM311 34q-32 -23 -54 -31t-49 -8q-36 0 -65.5 5.5t-50 20.5t-31.5 41t-11 68t20.5 75t66.5 51q-16 26 -21 53.5t-5 56.5q0 30 3.5 55.5t15 44t34 29t60.5 10.5t59 -10.5t31 -29t12 -44t2 -55.5q0 -53 -29 -83t-76 -51q6 -10 11.5 -21.5t14 -25.5t21.5 -30.5
t33 -37.5q18 30 22 79q0 14 9 23t23 9t23.5 -9t9.5 -23q-3 -40 -13.5 -70t-25.5 -53l19 -18q8 -8 8 -20q0 -11 -8.5 -19.5t-19.5 -8.5q-12 0 -20 8z" />
    <glyph glyph-name="quotesingle" unicode="'" horiz-adv-x="161" 
d="M104 411q0 -10 -7 -16t-18 -6q-22 0 -22 22l-7 94q0 13 9 22t21 9q13 0 22 -9t9 -22z" />
    <glyph glyph-name="parenleft" unicode="(" horiz-adv-x="190" 
d="M76 533q2 11 11.5 18t20.5 7q14 0 23 -9t9 -23q-12 -65 -18.5 -138.5t-6.5 -134.5q0 -29 1.5 -64t5 -72.5t8 -74t10.5 -68.5q0 -14 -9 -23t-23 -9q-11 0 -20.5 7t-11.5 18q-6 33 -11 70t-8.5 75t-5 74.5t-1.5 66.5t1.5 65.5t5 72t8.5 73t11 69.5z" />
    <glyph glyph-name="parenright" unicode=")" horiz-adv-x="190" 
d="M114 533q6 -33 11 -69.5t8.5 -73t5 -72t1.5 -65.5t-1.5 -66.5t-5 -74.5t-8.5 -75t-11 -70q-2 -11 -11.5 -18t-20.5 -7q-14 0 -23 9t-9 23q6 32 10.5 68.5t8 74t5 72.5t1.5 64q0 61 -6.5 134.5t-18.5 138.5q0 14 9 23t23 9q11 0 20.5 -7t11.5 -18z" />
    <glyph glyph-name="asterisk" unicode="*" horiz-adv-x="346" 
d="M135 314q-7 -13 -22 -13q-11 0 -19 7.5t-8 18.5q0 5 2.5 10t5.5 9l57 55l-77 9q-10 2 -17 9t-7 17q0 11 8 19t19 8q3 0 5 -0.5t6 -2.5l71 -32l-13 81q0 11 8 19t19 8t19 -8t8 -19l-13 -81l71 32q7 3 11 3q11 0 19 -8t8 -19q0 -10 -7 -17t-17 -9l-77 -9l57 -55
q3 -4 5.5 -9t2.5 -10q0 -11 -8 -18.5t-19 -7.5q-15 0 -22 13l-38 69z" />
    <glyph glyph-name="plus" unicode="+" horiz-adv-x="404" 
d="M235 225h90q12 0 20.5 -8.5t8.5 -20.5q0 -11 -8.5 -20t-20.5 -9h-90v-122q0 -14 -9.5 -23t-23.5 -9t-23 9t-9 23v122h-91q-12 0 -20.5 9t-8.5 20q0 12 8.5 20.5t20.5 8.5h91v122q0 14 9 23t23 9t23.5 -9t9.5 -23v-122z" />
    <glyph glyph-name="comma" unicode="," horiz-adv-x="170" 
d="M92 -21q-7 -14 -20 -14q-8 0 -14.5 6t-7.5 14l12 70q2 12 9.5 20.5t19.5 8.5t20.5 -8.5t8.5 -20.5q0 -3 -2 -9z" />
    <glyph glyph-name="hyphen" unicode="-" horiz-adv-x="305" 
d="M79 167q-12 0 -20.5 9t-8.5 20q0 12 8.5 20.5t20.5 8.5h147q12 0 20.5 -8.5t8.5 -20.5q0 -11 -8.5 -20t-20.5 -9h-147z" />
    <glyph glyph-name="period" unicode="." horiz-adv-x="165" 
d="M50 52q0 14 9 23t23 9t23.5 -9t9.5 -23v-20q0 -14 -9.5 -23t-23.5 -9t-23 9t-9 23v20z" />
    <glyph glyph-name="slash" unicode="/" horiz-adv-x="315" 
d="M204 536q3 9 11.5 15.5t18.5 6.5q13 0 22 -9t9 -22q0 -3 -2 -9l-152 -496q-3 -9 -11.5 -15.5t-18.5 -6.5q-13 0 -22 9t-9 22z" />
    <glyph glyph-name="zero" unicode="0" horiz-adv-x="364" 
d="M182 -5q-51 0 -79 13.5t-41 37.5t-15 58.5t-2 76.5v138q0 42 2.5 76.5t15 58.5t40.5 37.5t79 13.5t79 -13.5t40.5 -37.5t15 -58.5t2.5 -76.5v-138q0 -42 -2 -76.5t-15 -58.5t-41 -37.5t-79 -13.5zM182 447q-27 0 -41.5 -7t-21.5 -22t-8 -40t-1 -61v-134q0 -36 1 -61
t8 -40t21.5 -22t41.5 -7t41.5 7t21.5 22t8 40t1 61v134q0 36 -1 61t-8 40t-21.5 22t-41.5 7z" />
    <glyph glyph-name="one" unicode="1" horiz-adv-x="202" 
d="M52 396q-9 -6 -20 -6q-13 0 -22.5 9t-9.5 22q0 9 4.5 16.5t10.5 12.5l72 47q21 3 32 3q14 0 23.5 -9t9.5 -23v-436q0 -14 -9.5 -23t-23.5 -9t-23 9t-9 23v387z" />
    <glyph glyph-name="two" unicode="2" horiz-adv-x="321" 
d="M74 0q-20 2 -26.5 12.5t-6.5 25.5q0 5 0.5 10t1.5 10q12 47 42 87.5t61.5 77.5t55.5 71t24 69q0 18 -1 33.5t-7 26.5t-18.5 17.5t-35.5 6.5q-38 0 -49.5 -15t-13.5 -40q0 -14 -10 -23t-24 -9t-23 9t-9 23q1 21 5.5 41t18 36t38.5 26t66 10q48 0 74 -13.5t38 -34t14 -45.5
t2 -48q0 -32 -12 -62.5t-30.5 -59t-40.5 -55t-42 -50t-34.5 -43.5t-17.5 -36h156q10 -2 15.5 -10.5t5.5 -18.5q0 -11 -7 -19t-20 -10h-190z" />
    <glyph glyph-name="three" unicode="3" horiz-adv-x="341" 
d="M101 109q2 -25 14 -40.5t48 -15.5q24 0 36.5 6.5t18.5 17.5t7 26.5t1 33.5q0 16 -1 29.5t-6 24.5t-16 18.5t-31 10.5q-12 0 -20.5 9.5t-8.5 20.5q0 12 8.5 21t20.5 9q19 3 29.5 10.5t16 18.5t6.5 25t1 29q0 18 -1 33.5t-7 26.5t-18.5 17.5t-36.5 6.5q-35 0 -47.5 -15.5
t-14.5 -39.5q0 -14 -9.5 -23t-23.5 -9t-23 9t-9 23q1 21 5.5 41t18 36t38 26t64.5 10q48 0 74 -13.5t38.5 -34t14.5 -45.5t2 -48q0 -30 -6 -61t-35 -53q15 -11 23.5 -24t12.5 -28t5 -30.5t1 -29.5q0 -24 -2 -49.5t-14 -46t-38.5 -34t-74.5 -13.5q-40 0 -64.5 10t-38 26
t-18 36.5t-5.5 41.5q0 14 9 23t23 9t23.5 -9t9.5 -23z" />
    <glyph glyph-name="four" unicode="4" horiz-adv-x="323" 
d="M177 215v197l-104 -197h104zM150 481q7 8 19 13.5t23 5.5q21 0 35.5 -14.5t14.5 -35.5v-235h32q12 0 20.5 -8.5t8.5 -20.5q0 -11 -8.5 -20t-20.5 -9h-32v-125q0 -14 -9.5 -23t-23.5 -9t-23 9t-9 23v125h-137q-17 0 -28.5 11.5t-11.5 28.5t9 28z" />
    <glyph glyph-name="five" unicode="5" horiz-adv-x="341" 
d="M50 103q0 14 9 23t23 9t24 -9t10 -23q1 -23 13.5 -36.5t51.5 -13.5q23 0 35.5 8t18 21.5t6.5 31t1 35.5t-1 36.5t-6.5 33.5t-18 24.5t-35.5 9.5q-20 0 -39 -3.5t-25 -17.5q-12 -15 -29 -15q-15 0 -26.5 11.5t-11.5 26.5v214q0 14 9.5 22.5t23.5 8.5h179q12 0 20.5 -8.5
t8.5 -20.5q0 -11 -8.5 -20t-20.5 -9h-147v-142q9 3 14 5t11 3.5t15 2t25 0.5q48 0 73.5 -16.5t37.5 -41t14 -52.5t2 -51q0 -24 -2 -51t-14 -50.5t-37.5 -38.5t-73.5 -15q-42 0 -67 9t-39 24t-18.5 34.5t-5.5 40.5z" />
    <glyph glyph-name="six" unicode="6" horiz-adv-x="319" 
d="M105 149q0 -18 1 -35.5t7 -31t19.5 -21.5t37.5 -8q23 0 36 8t19 21.5t7.5 31t1.5 35.5t-1.5 35t-7.5 30.5t-19 22t-36 8.5q-24 0 -37 -8.5t-19.5 -22t-7.5 -30.5t-1 -35zM250 439q-18 5 -35 6.5t-37 1.5q-23 0 -37 -4.5t-22 -14t-11 -26t-3 -40.5v-76q9 4 16 7t15.5 5.5
t19.5 3.5t27 1q43 0 66.5 -15t34.5 -38t13 -50t2 -50q0 -24 -2 -51t-14 -50.5t-38.5 -38.5t-75.5 -15q-48 0 -74.5 15t-38.5 38.5t-14 50.5t-2 51v206q0 42 7 70.5t23.5 46t43 25t65.5 7.5t70 -7q12 -2 21 -10.5t9 -19.5q0 -12 -8.5 -20.5t-20.5 -8.5z" />
    <glyph glyph-name="seven" unicode="7" horiz-adv-x="281" 
d="M193 442h-154q-12 0 -20.5 9t-8.5 20q0 12 8.5 20.5t20.5 8.5h191q14 0 24 -10t12 -24v-5q0 -6 -3 -19l-128 -420q-3 -9 -12 -15.5t-20 -6.5q-12 0 -21 9t-9 21q0 4 2 10z" />
    <glyph glyph-name="eight" unicode="8" horiz-adv-x="344" 
d="M171 505q48 0 75 -13.5t39.5 -34t15.5 -45.5t3 -48q0 -15 -1 -31t-4.5 -31t-12 -28.5t-23.5 -24.5q29 -21 34.5 -51.5t5.5 -59.5q0 -24 -3 -49.5t-15.5 -46t-39 -34t-73.5 -13.5t-73.5 13.5t-39 34t-15.5 46t-3 49.5q0 29 5.5 59.5t34.5 51.5q-15 11 -23.5 24.5t-12 28.5
t-4.5 31t-1 31q0 23 2.5 48t15.5 45.5t39.5 34t73.5 13.5zM173 53q24 0 37 6.5t19.5 17.5t7.5 26.5t1 33.5t-1 33.5t-7.5 26.5t-19.5 17.5t-37 6.5q-25 0 -38.5 -6.5t-20 -17.5t-7.5 -26.5t-1 -33.5t1 -33.5t7.5 -26.5t20 -17.5t38.5 -6.5zM172 279q25 0 38.5 6.5t20 17.5
t7.5 26.5t1 33.5t-1 33.5t-7.5 26.5t-20 17.5t-38.5 6.5t-38.5 -6.5t-20 -17.5t-7.5 -26.5t-1 -33.5t1 -33.5t7.5 -26.5t20 -17.5t38.5 -6.5z" />
    <glyph glyph-name="nine" unicode="9" horiz-adv-x="319" 
d="M70 2q-12 2 -21 10.5t-9 19.5q0 12 8.5 20.5t20.5 8.5q18 -5 35 -6.5t37 -1.5q23 0 37 4.5t22 14t11 26t3 40.5v76q-17 -8 -32 -12.5t-46 -4.5q-43 0 -66.5 15t-34.5 38t-13 50t-2 50q0 24 2 51t14 50.5t38.5 38.5t75.5 15q48 0 74.5 -15t38.5 -38.5t14 -50.5t2 -51v-206
q0 -42 -7 -70.5t-23.5 -46t-43 -25t-65.5 -7.5q-38 0 -70 7zM214 351q0 18 -1 35t-7 30.5t-19.5 22t-37.5 8.5q-23 0 -36 -8.5t-19 -22t-7.5 -30.5t-1.5 -35t1.5 -35.5t7.5 -31t19 -21.5t36 -8q24 0 37 8t19.5 21.5t7.5 31t1 35.5z" />
    <glyph glyph-name="colon" unicode=":" horiz-adv-x="165" 
d="M50 52q0 14 9 23t23 9t23.5 -9t9.5 -23v-20q0 -14 -9.5 -23t-23.5 -9t-23 9t-9 23v20zM50 325q0 14 9 23t23 9t23.5 -9t9.5 -23v-20q0 -14 -9.5 -23t-23.5 -9t-23 9t-9 23v20z" />
    <glyph glyph-name="semicolon" unicode=";" horiz-adv-x="174" 
d="M59 325q0 14 9 23t23 9t23.5 -9t9.5 -23v-20q0 -14 -9.5 -23t-23.5 -9t-23 9t-9 23v20zM92 -21q-7 -14 -20 -14q-8 0 -14.5 6t-7.5 14l12 70q2 12 9.5 20.5t19.5 8.5t20.5 -8.5t8.5 -20.5q0 -3 -2 -9z" />
    <glyph glyph-name="less" unicode="&#x3c;" horiz-adv-x="352" 
d="M97 111q-21 8 -34 27.5t-13 43.5q0 27 13.5 48t34.5 29l173 90q13 0 22 -9t9 -22q0 -9 -6 -17.5t-14 -12.5l-176 -98h-10v-11h10l176 -100q8 -4 14 -12.5t6 -17.5q0 -13 -9 -22t-22 -9z" />
    <glyph glyph-name="equal" unicode="=" horiz-adv-x="305" 
d="M79 89q-12 0 -20.5 9t-8.5 20q0 12 8.5 20.5t20.5 8.5h147q12 0 20.5 -8.5t8.5 -20.5q0 -11 -8.5 -20t-20.5 -9h-147zM79 235q-12 0 -20.5 9t-8.5 20q0 12 8.5 20.5t20.5 8.5h147q12 0 20.5 -8.5t8.5 -20.5q0 -11 -8.5 -20t-20.5 -9h-147z" />
    <glyph glyph-name="greater" unicode="&#x3e;" horiz-adv-x="352" 
d="M81 18q-13 0 -22 9t-9 22q0 9 6 17.5t14 12.5l176 100h10v11h-10l-176 98q-8 4 -14 12.5t-6 17.5q0 13 9 22t22 9l173 -90q21 -8 34.5 -29t13.5 -48q0 -24 -13 -43.5t-34 -27.5z" />
    <glyph glyph-name="question" unicode="?" horiz-adv-x="322" 
d="M100 52q0 14 9 23t23 9t23.5 -9t9.5 -23v-20q0 -14 -9.5 -23t-23.5 -9t-23 9t-9 23v20zM71 493q34 12 76 12q65 0 95 -24t30 -86q0 -29 -8 -49.5t-20 -36.5t-26 -28.5t-26 -25t-20 -27t-8 -33.5v-37q0 -14 -9.5 -23t-23.5 -9t-23 9t-9 23v37q0 29 8 50t20 36.5t26 27.5
t26 24.5t20 27t8 34.5q0 13 -1 23t-7 16.5t-18.5 9.5t-35.5 3q-24 0 -38.5 -3t-25.5 -9q-13 0 -22 8.5t-9 20.5q0 10 6 18t15 11z" />
    <glyph glyph-name="at" unicode="@" horiz-adv-x="551" 
d="M312 505q31 0 64.5 -8.5t61 -26.5t45.5 -46t18 -67v-228q0 -24 -11 -37.5t-26 -20.5t-31.5 -9t-27.5 -2q-30 0 -49 9t-19 27h-9q-17 -19 -32.5 -24.5t-35.5 -5.5q-36 0 -57 10.5t-31.5 28.5t-13.5 42t-3 52v39q0 28 2.5 52.5t12.5 42.5t29.5 28t52.5 10q4 0 13 -0.5
t18.5 -3.5t19.5 -9t17 -17h8v4q0 11 7.5 18.5t18.5 7.5t19 -7.5t8 -18.5v-216q0 -21 6 -24.5t18 -3.5q13 0 22 3.5t9 24.5v228q0 17 -8 33.5t-23.5 29t-39 20t-53.5 7.5h-69q-35 0 -59.5 -8t-39.5 -21t-22 -29t-7 -32v-270q0 -48 35.5 -68t92.5 -20h65q29 0 54 2.5t45 10.5
q2 1 5.5 1h5.5q12 0 20 -8t8 -20q0 -11 -11 -20q-24 -15 -54.5 -19.5t-72.5 -4.5h-65q-38 0 -73 7t-61.5 23.5t-42.5 45t-16 70.5v270q0 38 17 66t44 46t61.5 27t70.5 9h69zM323 252q0 13 -1.5 25.5t-9 22.5t-22 16.5t-39.5 6.5q-13 0 -20 -8t-10 -20.5t-3.5 -27.5t-0.5 -29
v-38q0 -14 0.5 -29t4.5 -28t13 -21t25 -8q23 0 36 8t19 21t7 28t1 29v52z" />
    <glyph glyph-name="A" unicode="A" horiz-adv-x="357" 
d="M235 220l-56 224l-56 -224h112zM115 452q6 21 23 34.5t40 13.5q24 0 41.5 -13.5t23.5 -34.5l108 -411q1 -3 1 -9q0 -14 -9.5 -23t-24.5 -9q-11 0 -18.5 6t-11.5 15l-39 141h-140l-40 -141q-4 -9 -11.5 -15t-18.5 -6q-15 0 -24.5 9t-9.5 23q0 6 1 9z" />
    <glyph glyph-name="B" unicode="B" horiz-adv-x="398" 
d="M300 359q0 28 -10 45t-25 25t-33.5 10.5t-35.5 2.5h-76v-164h76q17 0 35.5 2t33.5 10t25 24t10 45zM196 58q17 0 35.5 2.5t33.5 11t25 25t10 45.5q0 28 -10 44t-25 23.5t-33.5 9t-35.5 1.5h-76v-162h76zM55 468q0 14 9.5 23t23.5 9h109q34 0 63 -2t51 -15.5t34.5 -42
t12.5 -81.5q0 -42 -7.5 -67.5t-21.5 -41.5q14 -15 21.5 -40.5t7.5 -67.5q0 -53 -12.5 -81.5t-34.5 -42t-51 -16t-63 -2.5h-109q-14 0 -23.5 8.5t-9.5 22.5v437z" />
    <glyph glyph-name="C" unicode="C" horiz-adv-x="383" 
d="M332 67q10 -2 15.5 -11t5.5 -19q0 -12 -7 -20t-20 -10q-48 -12 -100 -12q-48 0 -82.5 9.5t-56 31t-32 57t-10.5 87.5v140q0 52 10.5 87.5t32 57t56 31t82.5 9.5q57 0 106 -13q10 -2 15.5 -10t5.5 -18q0 -12 -7.5 -20.5t-19.5 -8.5q-48 12 -102 12q-114 0 -114 -120v-154
q0 -120 114 -120q29 0 55.5 3t52.5 11z" />
    <glyph glyph-name="D" unicode="D" horiz-adv-x="421" 
d="M120 442v-384h71q57 0 88.5 30t31.5 90v144q0 60 -31.5 90t-88.5 30h-71zM55 468q0 14 9.5 23t23.5 9h101q48 0 83 -9.5t58.5 -31t34.5 -57t11 -87.5v-130q0 -52 -11 -87.5t-34.5 -57t-58.5 -31t-83 -9.5h-101q-14 0 -23.5 9t-9.5 23v436z" />
    <glyph glyph-name="E" unicode="E" horiz-adv-x="362" 
d="M88 0q-14 0 -23.5 9t-9.5 23v436q0 14 9.5 23t23.5 9h210q12 0 20.5 -8.5t8.5 -20.5q0 -11 -8.5 -20t-20.5 -9h-178v-163h145q12 0 20.5 -8.5t8.5 -20.5q0 -11 -8.5 -20t-20.5 -9h-145v-163h178q12 0 20.5 -8.5t8.5 -20.5q0 -11 -8.5 -20t-20.5 -9h-210z" />
    <glyph glyph-name="F" unicode="F" horiz-adv-x="354" 
d="M120 223v-191q0 -14 -9.5 -23t-23.5 -9t-23 9t-9 23v436q0 14 9.5 23t23.5 9h212q12 0 20.5 -8.5t8.5 -20.5q0 -11 -8.5 -20t-20.5 -9h-180v-161h148q12 0 20.5 -8.5t8.5 -20.5q0 -11 -8.5 -20t-20.5 -9h-148z" />
    <glyph glyph-name="G" unicode="G" horiz-adv-x="410" 
d="M332 6q-50 -11 -101 -11q-48 0 -83 9.5t-58 31t-34 57t-11 87.5v140q0 52 11 87.5t34 57t58 31t83 9.5q55 0 111 -14q10 -2 15.5 -10t5.5 -18q0 -12 -7.5 -20.5t-19.5 -8.5q-26 7 -53 10t-54 3q-57 0 -88 -30t-31 -90v-154q0 -60 31 -90t88 -30q18 0 36 1t35 4v146h-60
q-12 0 -20.5 9t-8.5 20q0 12 8.5 20.5t20.5 8.5h92q14 0 23.5 -9t9.5 -23v-192q0 -14 -9.5 -22t-23.5 -10z" />
    <glyph glyph-name="H" unicode="H" horiz-adv-x="435" 
d="M120 223v-191q0 -14 -9.5 -23t-23.5 -9t-23 9t-9 23v436q0 14 9 23t23 9t23.5 -9t9.5 -23v-187h195v187q0 14 9.5 23t23.5 9t23 -9t9 -23v-436q0 -14 -9 -23t-23 -9t-23.5 9t-9.5 23v191h-195z" />
    <glyph glyph-name="I" unicode="I" 
d="M55 468q0 14 9 23t23 9t23.5 -9t9.5 -23v-436q0 -14 -9.5 -23t-23.5 -9t-23 9t-9 23v436z" />
    <glyph glyph-name="J" unicode="J" horiz-adv-x="306" 
d="M186 468q0 14 9 23t23 9t23.5 -9t9.5 -23v-369q0 -21 -5 -40t-17.5 -33t-35 -22.5t-57.5 -8.5h-14q-34 0 -56.5 8t-36 22.5t-19 33.5t-5.5 40v8q0 14 9 23t23 9t23.5 -9.5t9.5 -23.5q0 -18 6 -29t14.5 -16t19 -6.5t19.5 -1.5t19.5 1t18.5 6.5t13.5 16t5.5 28.5v363z" />
    <glyph glyph-name="K" unicode="K" horiz-adv-x="408" 
d="M385 46q4 -5 4 -16q0 -13 -9 -21.5t-23 -8.5q-17 0 -26 14l-146 234l-65 -63v-153q0 -14 -9.5 -23t-23.5 -9t-23 9t-9 23v436q0 14 9 23t23 9t23.5 -9t9.5 -23v-191l228 218q8 5 17 5q14 0 23.5 -9.5t9.5 -23.5q0 -15 -11 -24l-152 -152z" />
    <glyph glyph-name="L" unicode="L" horiz-adv-x="327" 
d="M55 468q0 14 9 23t23 9t23.5 -9t9.5 -23v-410h171q10 -2 15.5 -10.5t5.5 -18.5q0 -11 -7 -19t-20 -10h-197q-14 0 -23.5 9t-9.5 23v436z" />
    <glyph glyph-name="M" unicode="M" horiz-adv-x="554" 
d="M279 0q-17 0 -29.5 8.5t-17.5 22.5l-112 411v-410q0 -14 -9 -23t-23 -9t-23.5 9t-9.5 23v400q0 28 18.5 48t46.5 20q23 0 40 -12.5t25 -31.5l92 -366l92 366q8 19 25 31.5t40 12.5q28 0 46.5 -20t18.5 -48v-400q0 -14 -9.5 -23t-23.5 -9t-23 9t-9 23v410l-112 -411
q-5 -14 -17.5 -22.5t-29.5 -8.5h4z" />
    <glyph glyph-name="N" unicode="N" horiz-adv-x="461" 
d="M406 68q0 -28 -19 -48t-47 -20q-18 0 -33.5 9.5t-23.5 23.5l-163 409v-410q0 -14 -9.5 -23t-23.5 -9t-23 9t-9 23v401q0 27 19 47t46 20q18 0 33.5 -9t23.5 -24l164 -410v411q0 14 9 23t23 9t23.5 -9t9.5 -23v-400z" />
    <glyph glyph-name="O" unicode="O" horiz-adv-x="420" 
d="M210 -5q-61 0 -94.5 13.5t-49 37.5t-18.5 58.5t-3 76.5v138q0 42 3 76.5t19 58.5t49.5 37.5t93.5 13.5t93.5 -13.5t49.5 -37.5t19 -58.5t3 -76.5v-138q0 -42 -3 -76.5t-19 -58.5t-49 -37.5t-94 -13.5zM210 447q-34 0 -53.5 -7t-30 -22t-13.5 -40t-3 -61v-134q0 -36 3 -61
t13.5 -40t30.5 -22t53 -7t52.5 7t30 22t14 40t3.5 61v134q0 36 -3 61t-13.5 40t-30 22t-53.5 7z" />
    <glyph glyph-name="P" unicode="P" horiz-adv-x="358" 
d="M176 236q17 0 35.5 2.5t33.5 13t25 31t10 56.5t-10 56.5t-25 31t-33.5 13t-35.5 2.5h-56v-206h56zM55 468q0 14 9.5 23t23.5 9h89q34 0 63 -3t51 -18.5t34.5 -48t12.5 -91.5t-12.5 -91.5t-34.5 -48t-51 -18.5t-63 -3h-57v-146q0 -14 -9.5 -23t-23.5 -9t-23 9t-9 23v436z
" />
    <glyph glyph-name="Q" unicode="Q" horiz-adv-x="420" 
d="M171 -3q-46 4 -71.5 19t-37.5 39t-14.5 56t-2.5 70v138q0 42 3 76.5t19 58.5t49.5 37.5t93.5 13.5t93.5 -13.5t49.5 -37.5t19 -58.5t3 -76.5v-138q0 -40 -2.5 -73t-16 -57t-42 -38.5t-80.5 -16.5v-42q3 4 8 4.5t6 0.5h59q9 -2 14 -10t5 -17q0 -10 -6.5 -17t-18.5 -9h-97
q-14 0 -23.5 9t-9.5 23v59zM210 447q-34 0 -53.5 -7t-30 -22t-13.5 -40t-3 -61v-134q0 -36 3 -61t13.5 -40t30.5 -22t53 -7t52.5 7t30 22t14 40t3.5 61v134q0 36 -3 61t-13.5 40t-30 22t-53.5 7z" />
    <glyph glyph-name="R" unicode="R" horiz-adv-x="395" 
d="M193 236q17 0 35.5 2.5t33.5 13t25 31t10 56.5t-10 56.5t-25 31t-33.5 13t-35.5 2.5h-73v-206h73zM344 42q2 -6 2 -11q0 -14 -8.5 -22.5t-22.5 -8.5q-11 0 -19 6t-11 15l-51 158q-10 -1 -19.5 -1h-20.5h-74v-146q0 -14 -9.5 -23t-23.5 -9t-23 9t-9 23v436q0 14 9.5 23
t23.5 9h106q34 0 63 -3t51 -18.5t34.5 -48t12.5 -91.5q0 -66 -15.5 -99t-41.5 -47z" />
    <glyph glyph-name="S" unicode="S" horiz-adv-x="384" 
d="M307 492q10 -2 15.5 -10t5.5 -18q0 -12 -7.5 -20.5t-19.5 -8.5q-18 5 -43.5 8.5t-56.5 3.5q-33 0 -52.5 -6t-29.5 -16.5t-13 -25t-3 -31.5q0 -25 18 -40.5t45.5 -26.5t59.5 -22t59.5 -27.5t45.5 -41.5t18 -66q0 -52 -13.5 -82t-36.5 -45t-53 -18.5t-63 -3.5q-32 0 -67 7
t-61 24q-9 5 -13 12.5t-4 16.5q0 13 9 22.5t23 9.5q22 -12 37.5 -18.5t28.5 -10t24 -4.5t23 -1q18 0 36.5 2.5t32.5 12t23 27.5t9 49q0 24 -18 38.5t-45.5 26t-59.5 22t-59.5 27.5t-45.5 43t-18 67q0 39 8.5 65t28 42t50 23t74.5 7q29 0 56 -3t52 -10z" />
    <glyph glyph-name="T" unicode="T" horiz-adv-x="346" 
d="M205 32q0 -14 -9.5 -23t-23.5 -9t-23 9t-9 23v410h-101q-12 0 -20.5 9t-8.5 20q0 12 8.5 20.5t20.5 8.5h268q12 0 20.5 -8.5t8.5 -20.5q0 -11 -8.5 -20t-20.5 -9h-102v-410z" />
    <glyph glyph-name="U" unicode="U" horiz-adv-x="446" 
d="M326 468q0 14 9 23t23 9t23.5 -9t9.5 -23v-287q0 -42 -3 -76.5t-18.5 -58.5t-49.5 -37.5t-97 -13.5t-97 13.5t-49.5 37.5t-18.5 58.5t-3 76.5v287q0 14 9 23t23 9t23.5 -9t9.5 -23v-285q0 -36 3 -61t14 -40t31 -22t55 -7q34 0 54.5 7t31.5 22t14 40t3 61v285z" />
    <glyph glyph-name="V" unicode="V" horiz-adv-x="360" 
d="M180 0q-23 0 -41 13t-25 33l-109 422q0 14 10 23t23 9q23 0 31 -22l111 -425l111 425q8 22 31 22q13 0 23 -9t10 -23l-109 -422q-7 -20 -25 -33t-41 -13z" />
    <glyph glyph-name="W" unicode="W" horiz-adv-x="550" 
d="M212 48q-5 -20 -25 -34t-43 -14q-21 0 -38.5 11.5t-19.5 30.5l-56 429q2 12 11 20.5t22 8.5q14 0 22 -10t10 -23l51 -411l89 326q5 13 15 21.5t25 8.5t25 -8.5t15 -21.5l89 -326l51 411q2 13 10 23t22 10q13 0 22 -8.5t11 -20.5l-56 -429q-2 -19 -19.5 -30.5t-38.5 -11.5
q-23 0 -43 14t-25 34l-63 248z" />
    <glyph glyph-name="X" unicode="X" horiz-adv-x="358" 
d="M71 13q-10 -13 -27 -13q-14 0 -24 9.5t-10 24.5q0 9 7 20l118 192l-115 202q-7 9 -7 20q0 14 9 23t23 9q13 0 24 -11l110 -190l110 190q11 11 24 11q14 0 23 -9t9 -23q0 -11 -7 -20l-115 -202l118 -192q7 -11 7 -20q0 -15 -10 -24.5t-24 -9.5q-17 0 -27 13l-108 182z" />
    <glyph glyph-name="Y" unicode="Y" horiz-adv-x="367" 
d="M151 216l-130 231q-6 7 -6 20q0 14 9.5 23.5t23.5 9.5q8 0 16 -2.5t12 -9.5l108 -210l107 210q4 7 12 9.5t16 2.5q14 0 23.5 -9.5t9.5 -23.5q0 -13 -6 -20l-130 -231v-184q0 -14 -9.5 -23t-23.5 -9t-23 9t-9 23v184z" />
    <glyph glyph-name="Z" unicode="Z" horiz-adv-x="360" 
d="M308 500q17 0 27 -11t10 -28q0 -15 -8 -26l-233 -377h195q12 0 20.5 -8.5t8.5 -20.5q0 -11 -8.5 -20t-20.5 -9h-245q-17 0 -28 11t-11 28q0 15 8 26l238 377h-217q-12 0 -20.5 9t-8.5 20q0 12 8.5 20.5t20.5 8.5h264z" />
    <glyph glyph-name="bracketleft" unicode="[" horiz-adv-x="221" 
d="M50 526q0 14 9.5 23t23.5 9h59q12 0 20.5 -8.5t8.5 -20.5q0 -11 -8.5 -20t-20.5 -9h-27v-500h27q12 0 20.5 -9t8.5 -20q0 -12 -8.5 -20.5t-20.5 -8.5h-59q-14 0 -23.5 9t-9.5 23v552z" />
    <glyph glyph-name="backslash" unicode="\" horiz-adv-x="315" 
d="M265 31q0 -13 -9 -22t-22 -9q-10 0 -18.5 6.5t-11.5 15.5l-152 496q-2 6 -2 9q0 13 9 22t22 9q10 0 18.5 -6.5t11.5 -15.5z" />
    <glyph glyph-name="bracketright" unicode="]" horiz-adv-x="221" 
d="M171 -26q0 -14 -9.5 -23t-23.5 -9h-59q-12 0 -20.5 8.5t-8.5 20.5q0 11 8.5 20t20.5 9h27v500h-27q-12 0 -20.5 9t-8.5 20q0 12 8.5 20.5t20.5 8.5h59q14 0 23.5 -9t9.5 -23v-552z" />
    <glyph glyph-name="asciicircum" unicode="^" horiz-adv-x="284" 
d="M234 380q0 -14 -8.5 -22t-22.5 -8q-11 0 -20 7t-12 17l-23 70v10h-11v-10l-24 -70q-3 -10 -12 -17t-20 -7q-14 0 -22.5 8t-8.5 22l22 63q8 23 27 40t43 17q25 0 44 -17t27 -40z" />
    <glyph glyph-name="underscore" unicode="_" horiz-adv-x="401" 
d="M79 -112q-12 0 -20.5 9t-8.5 20q0 12 8.5 20.5t20.5 8.5h243q12 0 20.5 -8.5t8.5 -20.5q0 -11 -8.5 -20t-20.5 -9h-243z" />
    <glyph glyph-name="grave" unicode="`" horiz-adv-x="173" 
d="M123 412q0 -8 -4.5 -15.5t-15.5 -7.5q-13 0 -18 12l-34 96q-1 3 -1 9q0 11 7.5 20.5t19.5 9.5q11 0 19 -7t10 -17z" />
    <glyph glyph-name="a" unicode="a" horiz-adv-x="330" 
d="M142 51q23 0 43 7t40 31v100q-7 1 -22.5 1h-26.5q-16 0 -30.5 -2t-26 -9t-18 -20t-6.5 -35q0 -35 7 -54t40 -19zM99 341q-4 -1 -8 -1q-12 0 -19.5 8t-7.5 20q0 10 5.5 18t15.5 10q28 9 65 9q39 0 65.5 -7t43 -24t24 -45t7.5 -70v-227q0 -14 -9.5 -23t-23.5 -9t-23 9
t-9 23q-16 -27 -41 -32t-44 -5q-53 0 -81.5 28t-28.5 99q0 69 34 96.5t93 27.5q11 0 29.5 -3.5t29.5 -15.5h9v33q0 48 -18.5 67.5t-64.5 19.5q-13 0 -24 -2t-19 -4z" />
    <glyph glyph-name="b" unicode="b" horiz-adv-x="358" 
d="M120 31q0 -14 -9.5 -22.5t-23.5 -8.5t-23 9t-9 23v472q0 14 9 23t23 9t23.5 -9t9.5 -23v-126h9q10 10 21.5 15.5t22 8t19.5 3t14 0.5q42 0 64.5 -12.5t33 -34.5t12.5 -51t2 -63v-88q0 -34 -5.5 -63.5t-19 -51t-35 -34t-54.5 -12.5q-14 0 -24.5 0.5t-19.5 4t-18.5 10.5
t-21.5 21zM253 243q0 17 -1 35.5t-6 33.5t-16 25t-32 10q-29 0 -45 -7.5t-23.5 -20t-8.5 -28t-1 -31.5v-103q0 -17 1 -35.5t7.5 -33.5t20 -25t38.5 -10t38.5 10t19.5 25t7 33.5t1 35.5v86z" />
    <glyph glyph-name="c" unicode="c" horiz-adv-x="311" 
d="M255 61q12 0 19.5 -8.5t7.5 -20.5q0 -10 -5.5 -18t-15.5 -10q-36 -9 -76 -9q-77 0 -111 32.5t-34 116.5v112q0 84 34 116.5t111 32.5q21 0 39.5 -2.5t36.5 -7.5q10 -2 15.5 -10t5.5 -18q0 -12 -7.5 -20.5t-19.5 -8.5q-17 5 -34 7t-37 2q-46 0 -62.5 -18.5t-16.5 -66.5
v-124q0 -48 16.5 -66.5t62.5 -18.5q20 0 37 1.5t34 6.5z" />
    <glyph glyph-name="d" unicode="d" horiz-adv-x="358" 
d="M238 31q-12 -14 -21.5 -21t-18.5 -10.5t-19.5 -4t-24.5 -0.5q-33 0 -54.5 12.5t-35 34t-19 51t-5.5 63.5v88q0 34 1.5 63t12 51t33.5 34.5t65 12.5q5 0 14 -0.5t19.5 -3t22 -8t21.5 -15.5h9v126q0 14 9.5 23t23.5 9t23 -9t9 -23v-472q0 -14 -9 -23t-23 -9t-23.5 8.5
t-9.5 22.5zM105 157q0 -17 1 -35.5t7 -33.5t19.5 -25t38.5 -10t38.5 10t20 25t7.5 33.5t1 35.5v103q0 16 -1 31.5t-8.5 28t-23.5 20t-45 7.5q-21 0 -32 -10t-16 -25t-6 -33.5t-1 -35.5v-86z" />
    <glyph glyph-name="e" unicode="e" horiz-adv-x="341" 
d="M173 347q-22 0 -35 -2.5t-20 -14t-9.5 -35t-3.5 -64.5h131v35q0 18 -1.5 33t-7.5 25.5t-18.5 16.5t-35.5 6zM262 4q-18 -4 -37.5 -6.5t-39.5 -2.5q-77 0 -111 32.5t-34 116.5v83q0 48 5 82t19 55t40.5 31t68.5 10q45 0 70.5 -10t38 -29.5t16 -49.5t3.5 -69v-42
q0 -14 -9.5 -23t-23.5 -9h-163v-35q0 -48 16.5 -66.5t62.5 -18.5q22 0 43 2.5t41 7.5q10 -2 15.5 -10.5t5.5 -18.5q0 -12 -7 -20t-20 -10z" />
    <glyph glyph-name="f" unicode="f" horiz-adv-x="216" 
d="M137 32q0 -14 -9.5 -23t-23.5 -9t-23 9t-9 23v310h-33q-12 0 -20.5 9t-8.5 20q0 12 8.5 20.5t20.5 8.5h33v10q0 42 3 69t13 42.5t27.5 22t46.5 6.5q6 0 15 -0.5t23 -4.5q21 -5 21 -27q0 -12 -7.5 -20t-19.5 -8q-9 2 -13.5 2h-10.5q-12 0 -19 -4t-10 -13t-3.5 -25
t-0.5 -40v-10h52q12 0 20.5 -8.5t8.5 -20.5q0 -11 -8.5 -20t-20.5 -9h-52v-310z" />
    <glyph glyph-name="g" unicode="g" horiz-adv-x="358" 
d="M105 157q0 -17 1 -35.5t7 -33.5t19.5 -25t38.5 -10t38.5 10t20 25t7.5 33.5t1 35.5v103q0 16 -1 31.5t-8.5 28t-23.5 20t-45 7.5q-21 0 -32 -10t-16 -25t-6 -33.5t-1 -35.5v-86zM90 -177q-12 2 -20.5 10.5t-8.5 19.5q0 12 8.5 20.5t20.5 8.5q18 -5 35.5 -6.5t37.5 -1.5
q46 0 60.5 18.5t14.5 66.5v72q-12 -14 -21.5 -21t-18.5 -10.5t-19.5 -4t-24.5 -0.5q-33 0 -54.5 12.5t-35 34t-19 51t-5.5 63.5v88q0 34 1.5 63t12 51t33.5 34.5t65 12.5q5 0 14 -0.5t19.5 -3t22 -8t21.5 -15.5h9q7 22 32 22q14 0 23.5 -9t9.5 -23v-403q0 -42 -7.5 -70.5
t-24.5 -46t-43.5 -25t-65.5 -7.5q-40 0 -72 7z" />
    <glyph glyph-name="h" unicode="h" horiz-adv-x="376" 
d="M55 504q0 14 9 23t23 9t23.5 -9t9.5 -23v-126h10q23 20 44.5 23.5t41.5 3.5q37 0 58 -11.5t31.5 -32t13 -48t2.5 -60.5v-221q0 -14 -9.5 -23t-23.5 -9t-23 9t-9 23v203q0 20 -1 40t-6.5 36t-18 26t-34.5 10q-27 0 -42.5 -4.5t-23 -14t-9 -24t-1.5 -33.5v-239
q0 -14 -9.5 -23t-23.5 -9t-23 9t-9 23v472z" />
    <glyph glyph-name="i" unicode="i" 
d="M55 368q0 14 9 23t23 9t23.5 -9t9.5 -23v-336q0 -14 -9.5 -23t-23.5 -9t-23 9t-9 23v336zM55 493q0 14 9 23t23 9t23.5 -9t9.5 -23v-20q0 -14 -9.5 -23t-23.5 -9t-23 9t-9 23v20z" />
    <glyph glyph-name="j" unicode="j" 
d="M55 494q0 14 9 23t23 9t23.5 -9t9.5 -23v-20q0 -14 -9.5 -23t-23.5 -9t-23 9t-9 23v20zM120 -44q0 -42 -5 -69t-17 -42.5t-31.5 -22t-48.5 -6.5q-32 0 -49 4q-9 2 -19 10.5t-10 19.5q0 12 8.5 20.5t20.5 8.5q8 -2 19 -3.5t28 -1.5q15 0 22.5 4t11.5 13t4.5 25t0.5 40v412
q0 14 9 23t23 9t23.5 -9t9.5 -23v-412z" />
    <glyph glyph-name="k" unicode="k" horiz-adv-x="356" 
d="M190 204l-70 -70v-102q0 -14 -9.5 -23t-23.5 -9t-23 9t-9 23v472q0 14 9 23t23 9t23.5 -9t9.5 -23v-280l154 154q9 6 19 6q15 0 26 -14q6 -9 6 -19q0 -17 -13 -26l-75 -74l108 -207q1 -3 1 -9q0 -11 -6 -19.5t-16 -12.5q-6 -3 -13 -3q-20 0 -28 21z" />
    <glyph glyph-name="l" unicode="l" 
d="M55 504q0 14 9 23t23 9t23.5 -9t9.5 -23v-472q0 -14 -9.5 -23t-23.5 -9t-23 9t-9 23v472z" />
    <glyph glyph-name="m" unicode="m" horiz-adv-x="465" 
d="M360 235q0 20 -1 40t-5.5 36t-14 26t-27.5 10q-11 0 -21.5 -3.5t-17.5 -23.5q6 -18 7 -31t1 -36v-221q0 -14 -9.5 -23t-23.5 -9t-23 9t-9 23v203q0 20 -0.5 40t-3 36t-8.5 26t-17 10q-25 0 -38.5 -5t-20 -15.5t-7.5 -26t-1 -37.5v-231q0 -14 -9.5 -23t-23.5 -9t-23 9
t-9 23v336q0 14 9.5 23t23.5 9q25 0 32 -22h10q17 20 36.5 23.5t29.5 3.5q23 0 34.5 -7.5t23.5 -21.5q18 22 37 25.5t34 3.5q32 0 52 -11.5t30.5 -32t14 -48t3.5 -60.5v-221q0 -14 -9.5 -23t-23.5 -9t-23 9t-9 23v203z" />
    <glyph glyph-name="n" unicode="n" horiz-adv-x="366" 
d="M321 32q0 -14 -9.5 -23t-23.5 -9t-23 9t-9 23v203q0 20 -1 40t-6.5 36t-18 26t-34.5 10q-27 0 -42.5 -4.5t-23 -14t-9 -24t-1.5 -33.5v-239q0 -14 -9.5 -23t-23.5 -9t-23 9t-9 23v336q0 14 9.5 23t23.5 9q25 0 32 -22h10q23 20 44.5 23.5t41.5 3.5q37 0 58 -11.5
t31.5 -32t13 -48t2.5 -60.5v-221z" />
    <glyph glyph-name="o" unicode="o" horiz-adv-x="342" 
d="M171 53q25 0 38.5 10t19.5 25t7 33.5t1 35.5v86q0 17 -1 35.5t-7 33.5t-19.5 25t-38.5 10t-38.5 -10t-19.5 -25t-7 -33.5t-1 -35.5v-86q0 -17 1 -35.5t7 -33.5t19.5 -25t38.5 -10zM171 -5q-49 0 -75.5 12.5t-39 34t-14.5 51t-2 63.5v80q0 34 2 64.5t14.5 53.5t39 37
t75.5 14t75.5 -14t39 -37t14.5 -53.5t2 -64.5v-80q0 -34 -2 -63.5t-14.5 -51t-39 -34t-75.5 -12.5z" />
    <glyph glyph-name="p" unicode="p" horiz-adv-x="357" 
d="M55 368q0 14 9.5 23t23.5 9q25 0 32 -22h9q16 20 35.5 23.5t30.5 3.5q46 0 70.5 -12.5t36 -34.5t13.5 -51t2 -63v-88q0 -34 -2 -63.5t-12.5 -51t-34.5 -34t-67 -12.5q-25 0 -42.5 6.5t-38.5 29.5v-183q0 -14 -9.5 -23t-23.5 -9t-23 9t-9 23v520zM120 157q0 -17 1 -35.5
t7 -33.5t19.5 -25t38.5 -10t38.5 10t19.5 25t7 33.5t1 35.5v86q0 17 -1 35.5t-6 33.5t-16 25t-32 10q-29 0 -44.5 -7.5t-23 -20t-8.5 -28t-1 -31.5v-103z" />
    <glyph glyph-name="q" unicode="q" horiz-adv-x="357" 
d="M302 -152q0 -14 -9 -23t-23 -9t-23.5 9t-9.5 23v183q-21 -23 -38.5 -29.5t-42.5 -6.5q-44 0 -67.5 12.5t-34 34t-12.5 51t-2 63.5v88q0 34 2 63t13.5 51t36 34.5t70.5 12.5q11 0 30.5 -3.5t35.5 -23.5h9q7 22 32 22q14 0 23.5 -9t9.5 -23v-520zM237 260q0 16 -1 31.5
t-8.5 28t-23 20t-44.5 7.5q-21 0 -32 -10t-16 -25t-6 -33.5t-1 -35.5v-86q0 -17 1 -35.5t7 -33.5t19.5 -25t38.5 -10t38.5 10t19.5 25t7 33.5t1 35.5v103z" />
    <glyph glyph-name="r" unicode="r" horiz-adv-x="225" 
d="M55 368q0 14 9 23t23 9t23.5 -8.5t9.5 -22.5q19 25 34.5 30.5t41.5 5.5q12 0 20.5 -8.5t8.5 -20.5q0 -11 -8.5 -20t-20.5 -9h-13q-38 0 -50.5 -20t-12.5 -64v-231q0 -14 -9.5 -23t-23.5 -9t-23 9t-9 23v339v-3v0z" />
    <glyph glyph-name="s" unicode="s" horiz-adv-x="304" 
d="M223 339q-13 4 -29 6t-38 2q-37 0 -49 -12.5t-12 -39.5q0 -20 13 -32t32 -20.5t42 -16.5t42 -21.5t32 -34.5t13 -55q0 -66 -27 -93t-90 -27q-44 0 -83 11q-29 6 -29 31q0 12 8 21.5t22 9.5q20 -7 41 -11t41 -4q35 0 43.5 15t8.5 47q0 19 -13 31t-32 21t-42 17.5t-42 22
t-32 34.5t-13 54q0 62 35 86t89 24q22 0 40 -2t35 -7q10 -2 15.5 -10t5.5 -18q0 -12 -7.5 -20.5t-19.5 -8.5z" />
    <glyph glyph-name="t" unicode="t" horiz-adv-x="223" 
d="M72 487q0 14 9 23t23 9t23.5 -9t9.5 -23v-87h41q11 0 19 -8.5t8 -20.5q0 -11 -8.5 -20t-20.5 -9h-39v-221q0 -29 6 -44.5t34 -18.5q12 0 20.5 -8.5t8.5 -20.5q0 -11 -8.5 -20t-20.5 -9q-30 1 -50 7.5t-32 20.5t-17.5 37t-5.5 56v221h-33q-12 0 -20.5 9t-8.5 20
q0 12 8.5 20.5t20.5 8.5h33v87z" />
    <glyph glyph-name="u" unicode="u" horiz-adv-x="361" 
d="M105 163q0 -20 1 -40t6.5 -36t17.5 -26t35 -10q27 0 42.5 4.5t23 14t9 23.5t1.5 34v241q0 14 9 23t23 9t23.5 -9t9.5 -23v-336q0 -14 -9.5 -23t-23.5 -9q-25 0 -32 22h-10q-23 -20 -44.5 -23.5t-41.5 -3.5q-37 0 -58 11.5t-31.5 32t-13 48t-2.5 60.5v221q0 14 9 23t23 9
t23.5 -9t9.5 -23v-205z" />
    <glyph glyph-name="v" unicode="v" horiz-adv-x="312" 
d="M155 0q-21 0 -37.5 12t-23.5 32l-89 324q0 14 8.5 23t22.5 9q11 0 21 -6t14 -16l85 -327l85 327q4 10 14 16t21 6q14 0 22.5 -9t8.5 -23l-89 -324q-7 -20 -23.5 -32t-39.5 -12z" />
    <glyph glyph-name="w" unicode="w" horiz-adv-x="416" 
d="M208 255l-36 -208q-4 -20 -21 -33.5t-39 -13.5q-20 0 -39.5 11.5t-21.5 29.5l-46 330q2 12 11 20.5t22 8.5q14 0 22 -10t10 -23l39 -307l58 273q3 14 15 22.5t26 8.5t26 -8.5t15 -22.5l58 -273l39 307q2 13 10 23t22 10q13 0 22 -8.5t11 -20.5l-46 -330
q-2 -18 -21.5 -29.5t-39.5 -11.5q-22 0 -39 13.5t-21 33.5z" />
    <glyph glyph-name="x" unicode="x" horiz-adv-x="306" 
d="M76 14q-10 -13 -27 -13q-14 0 -24 9t-10 23q0 10 7 21l87 140l-87 154q-7 9 -7 20q0 14 9 23t23 9q8 0 14.5 -3t9.5 -8l82 -142l82 142q3 5 9.5 8t14.5 3q14 0 23 -9t9 -23q0 -11 -7 -20l-87 -154l87 -140q7 -11 7 -21q0 -14 -10 -23t-24 -9q-17 0 -27 13l-77 129z" />
    <glyph glyph-name="y" unicode="y" horiz-adv-x="311" 
d="M161 -166q-4 -8 -13 -13t-19 -5q-13 0 -21.5 7.5t-10.5 21.5l34 130q2 8 7 10.5t10 4.5v10h-18q-14 0 -25.5 9t-16.5 22l-83 341q2 12 11 20t22 8q19 0 28 -17l82 -322v-10h11v10l82 321q4 8 12 13t18 5q14 0 23.5 -8.5t11.5 -21.5z" />
    <glyph glyph-name="z" unicode="z" horiz-adv-x="316" 
d="M74 0q-17 0 -28 11t-11 28q0 15 8 26l161 277h-140q-12 0 -20.5 9t-8.5 20q0 12 8.5 20.5t20.5 8.5h179q17 0 27.5 -11t10.5 -28q0 -5 -0.5 -10t-2.5 -9q-9 -17 -29 -53q-17 -31 -49 -86t-83 -145h135q12 0 20.5 -8.5t8.5 -20.5q0 -11 -8.5 -20t-20.5 -9h-178z" />
    <glyph glyph-name="braceleft" unicode="{" horiz-adv-x="298" 
d="M79 219q-12 0 -20.5 9t-8.5 20q0 14 8.5 22.5t20.5 8.5q18 4 25.5 20t7.5 60v153q0 8 1 16.5t6 15t14 10.5t26 4h60q12 0 20.5 -8.5t8.5 -20.5q0 -11 -8.5 -20t-20.5 -9h-20q-11 0 -20 -2t-9 -15v-124q0 -42 -7.5 -67.5t-21.5 -41.5q14 -15 21.5 -40.5t7.5 -67.5v-125
q0 -13 9 -15t20 -2h20q12 0 20.5 -9t8.5 -20q0 -12 -8.5 -20.5t-20.5 -8.5h-60q-17 0 -26 4t-14 10.5t-6 15t-1 16.5v154q0 44 -7.5 59t-25.5 18z" />
    <glyph glyph-name="bar" unicode="|" horiz-adv-x="165" 
d="M50 526q0 14 9 23t23 9t23.5 -9t9.5 -23v-552q0 -14 -9.5 -23t-23.5 -9t-23 9t-9 23v552z" />
    <glyph glyph-name="braceright" unicode="}" horiz-adv-x="298" 
d="M219 219q-18 -3 -25.5 -18t-7.5 -59v-154q0 -8 -1 -16.5t-6 -15t-14.5 -10.5t-25.5 -4h-60q-12 0 -20.5 8.5t-8.5 20.5q0 11 8.5 20t20.5 9h20q11 0 20 2t9 15v125q0 42 7.5 67.5t21.5 40.5q-14 16 -21.5 41.5t-7.5 67.5v124q0 13 -9 15t-20 2h-20q-12 0 -20.5 9t-8.5 20
q0 12 8.5 20.5t20.5 8.5h60q16 0 25.5 -4t14.5 -10.5t6 -15t1 -16.5v-153q0 -44 7.5 -60t25.5 -20q12 0 20.5 -8.5t8.5 -22.5q0 -11 -8.5 -20t-20.5 -9z" />
    <glyph glyph-name="asciitilde" unicode="~" horiz-adv-x="381" 
d="M247 200q-16 0 -30.5 5.5t-28.5 11.5t-27.5 11.5t-27.5 5.5q-25 0 -41 -11q-7 -5 -16 -5q-11 0 -18.5 7.5t-7.5 18.5q0 13 11 22q17 12 34 19t38 7q25 0 39.5 -5.5t25.5 -11.5t21.5 -11.5t28.5 -5.5q14 0 23 2.5t18 8.5q7 5 16 5q11 0 18.5 -7.5t7.5 -18.5q0 -13 -11 -22
q-17 -12 -34.5 -19t-38.5 -7z" />
    <glyph glyph-name="uni00A0" unicode="&#xa0;" horiz-adv-x="186" 
 />
    <glyph glyph-name="exclamdown" unicode="&#xa1;" horiz-adv-x="165" 
d="M56 243q0 11 7.5 18.5t18.5 7.5t18.5 -7.5t7.5 -18.5q0 -48 0.5 -85t1 -72.5t1.5 -72t2 -82.5q0 -13 -9.5 -22t-21.5 -9q-13 0 -22 9t-9 22q1 46 2 82.5t1.5 72t1 72.5t0.5 85zM50 368q0 14 9 23t23 9t23.5 -9t9.5 -23v-20q0 -14 -9.5 -23t-23.5 -9t-23 9t-9 23v20z" />
    <glyph glyph-name="cent" unicode="&#xa2;" horiz-adv-x="343" 
d="M271 63q10 -2 15.5 -10.5t5.5 -18.5q0 -12 -7 -20t-20 -10q-14 -3 -29 -5.5t-31 -3.5v-36q0 -14 -9.5 -23t-23.5 -9t-23 9t-9 23v41q-48 10 -69 43.5t-21 100.5v112q0 67 21 100.5t69 43.5v39q0 14 9 23t23 9t23.5 -9t9.5 -23v-34q15 -1 30 -2.5t29 -4.5q13 -2 21 -10
t8 -20q0 -11 -8.5 -20t-20.5 -9q-17 5 -33.5 6.5t-36.5 1.5q-46 0 -62.5 -18.5t-16.5 -66.5v-124q0 -48 16.5 -66.5t62.5 -18.5q22 0 39.5 2.5t37.5 7.5z" />
    <glyph glyph-name="sterling" unicode="&#xa3;" horiz-adv-x="412" 
d="M310 441q-19 4 -38.5 5t-36.5 1q-23 0 -35.5 -7.5t-19.5 -19t-8.5 -24.5t-1.5 -24v-114h68q12 0 20.5 -8.5t8.5 -20.5q0 -11 -8.5 -20t-20.5 -9h-68v-142h163q12 0 20.5 -8.5t8.5 -20.5q0 -11 -8.5 -20t-20.5 -9h-195q-14 0 -23.5 9t-9.5 23v168h-26q-12 0 -20.5 9
t-8.5 20q0 12 8.5 20.5t20.5 8.5h26v113q0 27 6 51.5t20.5 43t39.5 29t64 10.5q6 0 28.5 -1.5t46.5 -6.5q9 -2 19 -10.5t10 -19.5q0 -12 -8.5 -19t-20.5 -7z" />
    <glyph glyph-name="currency" unicode="&#xa4;" horiz-adv-x="480" 
d="M240 319q-40 0 -67 -27t-27 -68q0 -39 27 -66t67 -27t67 27t27 66q0 41 -27 68t-67 27zM240 76q-26 0 -49 7.5t-42 22.5l-51 -54q-9 -7 -19 -7q-12 0 -20.5 8.5t-8.5 20.5q0 10 6 18l55 55q-10 17 -15.5 36.5t-5.5 41.5q0 20 5 39t13 35l-52 52q-6 7 -6 18q0 12 8.5 20.5
t20.5 8.5q10 0 19 -7l46 -49q20 16 44 25t52 9t52 -9t44 -25l46 49q9 7 19 7q12 0 20.5 -8.5t8.5 -20.5q0 -11 -6 -18l-52 -52q8 -16 13 -35t5 -39q0 -22 -5.5 -41.5t-15.5 -36.5l55 -55q6 -8 6 -18q0 -12 -8.5 -20.5t-20.5 -8.5q-10 0 -19 7l-51 54q-38 -30 -91 -30z" />
    <glyph glyph-name="yen" unicode="&#xa5;" horiz-adv-x="437" 
d="M387 467q0 -13 -6 -20l-125 -222h35q12 0 20.5 -8.5t8.5 -20.5q0 -11 -8.5 -20t-20.5 -9h-40v-38h40q12 0 20.5 -8.5t8.5 -20.5q0 -11 -8.5 -20t-20.5 -9h-40v-39q0 -14 -9.5 -23t-23.5 -9t-23 9t-9 23v39h-40q-12 0 -20.5 9t-8.5 20q0 12 8.5 20.5t20.5 8.5h40v38h-40
q-12 0 -20.5 9t-8.5 20q0 12 8.5 20.5t20.5 8.5h35l-125 222q-6 7 -6 20q0 14 9.5 23.5t23.5 9.5q8 0 16 -2.5t12 -9.5l108 -210l107 210q4 7 12 9.5t16 2.5q14 0 23.5 -9.5t9.5 -23.5z" />
    <glyph glyph-name="brokenbar" unicode="&#xa6;" horiz-adv-x="165" 
d="M50 526q0 14 9 23t23 9t23.5 -9t9.5 -23v-175q0 -14 -9.5 -23t-23.5 -9t-23 9t-9 23v175zM50 149q0 14 9 23t23 9t23.5 -9t9.5 -23v-175q0 -14 -9.5 -23t-23.5 -9t-23 9t-9 23v175z" />
    <glyph glyph-name="section" unicode="&#xa7;" horiz-adv-x="411" 
d="M243 168q24 0 38.5 13t14.5 50q0 16 -9 26.5t-23 18.5q-32 12 -88 12q-37 0 -49 -12.5t-12 -39.5q0 -20 15 -33t35.5 -20.5t42 -11t35.5 -3.5zM321 512q10 -2 15.5 -10t5.5 -18q0 -12 -7.5 -20.5t-19.5 -8.5q-27 8 -67 8q-37 0 -49 -12.5t-12 -39.5q0 -20 13 -32
t32 -20.5t42 -16.5t42 -21.5t32 -34.5t13 -55q0 -57 -19.5 -85t-65.5 -34q13 -23 13 -56q0 -66 -27 -93t-90 -27q-22 0 -43 3t-40 8q-29 6 -29 31q0 12 8 21.5t22 9.5q20 -7 41.5 -11t40.5 -4q35 0 43.5 15t8.5 47q0 19 -13 31t-32 21t-42 17.5t-42 22t-32 34.5t-13 54
q0 54 26 78t68 30q-10 12 -16 28t-6 39q0 62 35 86t89 24q42 0 75 -9z" />
    <glyph glyph-name="dieresis" unicode="&#xa8;" horiz-adv-x="336" 
d="M50 504q0 14 9 23t23 9t23.5 -9t9.5 -23v-8q0 -14 -9.5 -23t-23.5 -9t-23 9t-9 23v8zM221 504q0 14 9 23t23 9t23.5 -9t9.5 -23v-8q0 -14 -9.5 -23t-23.5 -9t-23 9t-9 23v8z" />
    <glyph glyph-name="copyright" unicode="&#xa9;" horiz-adv-x="610" 
d="M305 505q53 0 99.5 -20t81 -54.5t54.5 -81t20 -99.5t-20 -99.5t-54.5 -81t-81 -54.5t-99.5 -20t-99.5 20t-81 54.5t-54.5 81t-20 99.5t20 99.5t54.5 81t81 54.5t99.5 20zM305 43q41 0 78.5 17t66 45.5t45.5 66t17 78.5t-17 78.5t-45.5 66t-66 45.5t-78.5 17t-78.5 -17
t-66 -45.5t-45.5 -66t-17 -78.5t17 -78.5t45.5 -66t66 -45.5t78.5 -17zM393 99q-21 -5 -46 -7t-42 -2q-30 0 -54.5 5.5t-41.5 19t-26.5 35.5t-9.5 54v88q0 64 36 89t96 25q17 0 42 -2t46 -7q14 -7 14 -21q0 -8 -6.5 -14.5t-16.5 -6.5q-19 4 -41.5 5t-38.5 1q-35 0 -58 -14
t-23 -52v-94q0 -38 23 -52t58 -14q16 0 38.5 1t41.5 5q10 0 16.5 -6.5t6.5 -14.5q0 -14 -14 -21z" />
    <glyph glyph-name="ordfeminine" unicode="&#xaa;" horiz-adv-x="308" 
d="M258 242q0 -11 -8 -17.5t-19 -6.5t-19.5 6.5t-8.5 17.5q-12 -20 -31 -24t-33 -4q-39 0 -64 21t-25 74q0 52 28.5 73t72.5 21q9 0 23 -3t22 -12h7v19q0 36 -14 50.5t-48 14.5q-10 0 -18.5 -1t-14.5 -3q-11 0 -18 6t-7 16t6 17t14 9q20 5 44 5q58 0 84.5 -23.5t26.5 -85.5
v-170zM141 262q17 0 31.5 5t30.5 24v68q-5 1 -17 1h-20q-12 0 -23 -1.5t-19.5 -6.5t-13.5 -15t-5 -27q0 -26 5.5 -37t30.5 -11z" />
    <glyph glyph-name="guillemotleft" unicode="&#xab;" horiz-adv-x="425" 
d="M197 48q4 -8 4 -15q0 -14 -9.5 -23.5t-23.5 -9.5q-16 0 -26 15l-66 112q-11 18 -18.5 40t-7.5 45t7.5 45t18.5 40l66 112q10 15 26 15q14 0 23.5 -9.5t9.5 -23.5q0 -7 -4 -15l-91 -158h-10v-12h10zM371 48q4 -8 4 -15q0 -14 -9.5 -23.5t-23.5 -9.5q-16 0 -26 15l-66 112
q-11 18 -18.5 40t-7.5 45t7.5 45t18.5 40l66 112q10 15 26 15q14 0 23.5 -9.5t9.5 -23.5q0 -7 -4 -15l-91 -158h-10v-12h10z" />
    <glyph glyph-name="logicalnot" unicode="&#xac;" horiz-adv-x="368" 
d="M318 85q0 -14 -9.5 -23t-23.5 -9t-23 9t-9 23v99h-171q-13 0 -22.5 10t-9.5 22q0 14 9.5 23.5t22.5 9.5h203q14 0 23.5 -9t9.5 -23v-132z" />
    <glyph glyph-name="uni00AD" unicode="&#xad;" horiz-adv-x="186" 
 />
    <glyph glyph-name="registered" unicode="&#xae;" horiz-adv-x="610" 
d="M305 505q53 0 99.5 -20t81 -54.5t54.5 -81t20 -99.5t-20 -99.5t-54.5 -81t-81 -54.5t-99.5 -20t-99.5 20t-81 54.5t-54.5 81t-20 99.5t20 99.5t54.5 81t81 54.5t99.5 20zM305 43q41 0 78.5 17t66 45.5t45.5 66t17 78.5t-17 78.5t-45.5 66t-66 45.5t-78.5 17t-78.5 -17
t-66 -45.5t-45.5 -66t-17 -78.5t17 -78.5t45.5 -66t66 -45.5t78.5 -17zM314 247q10 0 22 1t21.5 6.5t16 17t6.5 33.5q0 21 -6.5 32.5t-16 16.5t-21.5 6t-22 1h-64v-114h64zM345 203h-95v-76q0 -11 -7 -18t-18 -7t-18 7t-7 18v247q0 14 9.5 23t23.5 9h96q21 0 39.5 -2t32 -12
t21.5 -30t8 -57q0 -42 -9.5 -63t-25.5 -30l26 -80q1 -2 1 -4v-4q0 -10 -6.5 -16t-17.5 -6q-16 0 -21 14z" />
    <glyph glyph-name="macron" unicode="&#xaf;" horiz-adv-x="373" 
d="M79 433q-12 0 -20.5 9t-8.5 20q0 12 8.5 20.5t20.5 8.5h215q12 0 20.5 -8.5t8.5 -20.5q0 -11 -8.5 -20t-20.5 -9h-215z" />
    <glyph glyph-name="degree" unicode="&#xb0;" horiz-adv-x="282" 
d="M141 521q42 0 66.5 -30t24.5 -72t-24.5 -71.5t-66.5 -29.5t-66.5 29.5t-24.5 71.5t24.5 72t66.5 30zM141 372q20 0 28 13.5t8 33.5t-8 33.5t-28 13.5t-28.5 -13.5t-8.5 -33.5t8.5 -33.5t28.5 -13.5z" />
    <glyph glyph-name="plusminus" unicode="&#xb1;" horiz-adv-x="404" 
d="M235 318h90q12 0 20.5 -8.5t8.5 -20.5q0 -11 -8.5 -20t-20.5 -9h-90v-122q0 -14 -9.5 -23t-23.5 -9t-23 9t-9 23v122h-91q-12 0 -20.5 9t-8.5 20q0 12 8.5 20.5t20.5 8.5h91v122q0 14 9 23t23 9t23.5 -9t9.5 -23v-122zM79 0q-12 0 -20.5 9t-8.5 20q0 12 8.5 20.5
t20.5 8.5h246q12 0 20.5 -8.5t8.5 -20.5q0 -11 -8.5 -20t-20.5 -9h-246z" />
    <glyph glyph-name="twosuperior" unicode="&#xb2;" horiz-adv-x="267" 
d="M84 218q-10 0 -17 7t-7 17q0 3 2 11q7 28 23.5 52.5t33.5 46.5t30 42.5t13 41.5t-3.5 28.5t-24.5 7.5q-14 0 -20.5 -3.5t-8.5 -11.5q0 -10 -8.5 -16.5t-19.5 -6.5q-10 0 -18.5 7.5t-8.5 17.5q1 12 5.5 23t14 19.5t25 14t38.5 5.5q28 0 45 -8t25.5 -20.5t11 -27.5t2.5 -29
q0 -29 -13 -53.5t-29.5 -45.5t-31 -38.5t-17.5 -32.5h67q10 0 17 -7t7 -17t-7 -17t-17 -7h-109z" />
    <glyph glyph-name="threesuperior" unicode="&#xb3;" horiz-adv-x="269" 
d="M50 279q0 10 8.5 16t18.5 6t19 -6t9 -16q0 -18 29 -18q23 0 26.5 8t3.5 30q0 18 -3.5 29t-20.5 14q-8 0 -13 7.5t-5 18.5t5 17.5t13 6.5q17 3 20.5 14t3.5 29q0 22 -3.5 29.5t-26.5 7.5q-29 0 -29 -17q0 -10 -9 -16t-19 -6t-18.5 6t-8.5 16q0 24 18 45t65 21q29 0 46 -8
t26 -20.5t11.5 -27.5t2.5 -29q0 -18 -7.5 -36.5t-25.5 -32.5q18 -13 25.5 -32t7.5 -36q0 -14 -2.5 -29.5t-11 -28t-25.5 -20.5t-46 -8q-47 0 -65.5 20.5t-18.5 45.5z" />
    <glyph glyph-name="acute" unicode="&#xb4;" horiz-adv-x="180" 
d="M99 410q-2 -7 -8.5 -11.5t-14.5 -4.5q-10 0 -17.5 6.5t-8.5 15.5l15 88q2 13 10.5 22.5t22.5 9.5q13 0 22.5 -9.5t9.5 -22.5q0 -2 -0.5 -2.5t-0.5 -2.5z" />
    <glyph glyph-name="mu" unicode="&#xb5;" horiz-adv-x="366" 
d="M316 31q0 -14 -9.5 -22.5t-23.5 -8.5q-11 0 -20 5.5t-12 16.5h-10q-23 -27 -61 -27q-5 0 -13.5 1t-16.5 2.5t-15 4.5t-10 7h-10v-158q0 -14 -9.5 -23t-23.5 -9t-23 9t-9 23v516q0 14 9 23t23 9t23.5 -9t9.5 -23v-205q0 -20 1 -40t6.5 -36t17.5 -26t35 -10q27 0 42.5 4.5
t23 14t9 23.5t1.5 34v241q0 14 9 23t23 9t23.5 -9t9.5 -23v-337z" />
    <glyph glyph-name="paragraph" unicode="&#xb6;" horiz-adv-x="483" 
d="M400 518q14 0 23.5 -9t9.5 -23v-637q0 -14 -9.5 -23t-23.5 -9t-23 9t-9 23v608h-79v-608q0 -14 -9.5 -23t-23.5 -9t-23 9t-9 23v277q-37 4 -68.5 21t-55 43.5t-37 59.5t-13.5 71t13.5 71.5t37 60t55 43.5t68.5 22h176z" />
    <glyph glyph-name="periodcentered" unicode="&#xb7;" horiz-adv-x="231" 
d="M50 194q0 28 19 47t46 19q28 0 47 -19t19 -47q0 -27 -19 -46t-47 -19q-27 0 -46 19t-19 46z" />
    <glyph glyph-name="cedilla" unicode="&#xb8;" horiz-adv-x="180" 
d="M81 -69q2 7 8.5 11.5t14.5 4.5q10 0 17.5 -6.5t8.5 -15.5l-15 -88q-2 -13 -10.5 -22.5t-22.5 -9.5q-13 0 -22.5 9.5t-9.5 22.5q0 2 0.5 2.5t0.5 2.5z" />
    <glyph glyph-name="onesuperior" unicode="&#xb9;" horiz-adv-x="215" 
d="M165 245q0 -12 -8 -19.5t-20 -7.5t-19.5 7.5t-7.5 19.5v221l-24 -15q-7 -5 -14 -5q-9 0 -15.5 6.5t-6.5 15.5q0 12 10 19l50 32q5 2 9.5 2h12.5q14 0 23.5 -9t9.5 -23v-244z" />
    <glyph glyph-name="ordmasculine" unicode="&#xba;" horiz-adv-x="365" 
d="M183 526q31 0 55.5 -11.5t41.5 -31.5t26 -47t9 -58t-9 -58t-26 -47t-41.5 -31.5t-55.5 -11.5q-30 0 -55 11.5t-42 31.5t-26.5 47t-9.5 58t9.5 58t26.5 47t42 31.5t55 11.5zM183 294q35 0 51.5 24.5t16.5 59.5t-16.5 59.5t-51.5 24.5t-51.5 -24.5t-16.5 -59.5t16.5 -59.5
t51.5 -24.5z" />
    <glyph glyph-name="guillemotright" unicode="&#xbb;" horiz-adv-x="425" 
d="M319 206h10v12h-10l-91 158q-4 8 -4 15q0 14 9.5 23.5t23.5 9.5q16 0 26 -15l66 -112q11 -18 18.5 -40t7.5 -45t-7.5 -45t-18.5 -40l-66 -112q-10 -15 -26 -15q-14 0 -23.5 9.5t-9.5 23.5q0 7 4 15zM145 206h10v12h-10l-91 158q-4 8 -4 15q0 14 9.5 23.5t23.5 9.5
q16 0 26 -15l66 -112q11 -18 18.5 -40t7.5 -45t-7.5 -45t-18.5 -40l-66 -112q-10 -15 -26 -15q-14 0 -23.5 9.5t-9.5 23.5q0 7 4 15z" />
    <glyph glyph-name="onequarter" unicode="&#xbc;" horiz-adv-x="575" 
d="M441 126v113l-55 -113h55zM353 485q3 6 9 10.5t13 4.5q11 0 18.5 -7.5t7.5 -18.5q0 -3 -2 -9l-203 -450q-3 -6 -9 -10.5t-13 -4.5q-11 0 -18.5 7.5t-7.5 18.5zM165 224q0 -12 -8 -19.5t-20 -7.5t-19.5 7.5t-7.5 19.5v221l-24 -15q-7 -5 -14 -5q-9 0 -15.5 6.5t-6.5 15.5
q0 12 10 19l50 32q5 2 9.5 2h12.5q14 0 23.5 -9t9.5 -23v-244zM496 126h8q8 0 14.5 -6.5t6.5 -14.5t-6.5 -14t-14.5 -6h-8v-58q0 -12 -8 -19.5t-20 -7.5t-19.5 7.5t-7.5 19.5v58h-92q-12 0 -19.5 7.5t-7.5 19.5t6 20l90 153q13 18 35 18q18 0 30.5 -12.5t12.5 -30.5v-134z
" />
    <glyph glyph-name="onehalf" unicode="&#xbd;" horiz-adv-x="573" 
d="M353 485q3 6 9 10.5t13 4.5q11 0 18.5 -7.5t7.5 -18.5q0 -3 -2 -9l-203 -450q-3 -6 -9 -10.5t-13 -4.5q-11 0 -18.5 7.5t-7.5 18.5zM165 224q0 -12 -8 -19.5t-20 -7.5t-19.5 7.5t-7.5 19.5v221l-24 -15q-7 -5 -14 -5q-9 0 -15.5 6.5t-6.5 15.5q0 12 10 19l50 32
q5 2 9.5 2h12.5q14 0 23.5 -9t9.5 -23v-244zM390 0q-10 0 -17 7t-7 17q0 3 2 11q7 28 23.5 52.5t33.5 46.5t30 42.5t13 41.5t-3.5 28.5t-24.5 7.5q-14 0 -20.5 -3.5t-8.5 -11.5q0 -10 -8.5 -16.5t-19.5 -6.5q-10 0 -18.5 7.5t-8.5 17.5q1 12 5.5 23t14 19.5t25 14t38.5 5.5
q28 0 45 -8t25.5 -20.5t11 -27.5t2.5 -29q0 -29 -13 -53.5t-29.5 -45.5t-31 -38.5t-17.5 -32.5h67q10 0 17 -7t7 -17t-7 -17t-17 -7h-109z" />
    <glyph glyph-name="threequarters" unicode="&#xbe;" horiz-adv-x="605" 
d="M471 126v113l-55 -113h55zM383 485q3 6 9 10.5t13 4.5q11 0 18.5 -7.5t7.5 -18.5q0 -3 -2 -9l-203 -450q-3 -6 -9 -10.5t-13 -4.5q-11 0 -18.5 7.5t-7.5 18.5zM526 126h8q8 0 14.5 -6.5t6.5 -14.5t-6.5 -14t-14.5 -6h-8v-58q0 -12 -8 -19.5t-20 -7.5t-19.5 7.5t-7.5 19.5
v58h-92q-12 0 -19.5 7.5t-7.5 19.5t6 20l90 153q13 18 35 18q18 0 30.5 -12.5t12.5 -30.5v-134zM50 258q0 10 8.5 16t18.5 6t19 -6t9 -16q0 -18 29 -18q23 0 26.5 8t3.5 30q0 18 -3.5 29t-20.5 14q-8 0 -13 7.5t-5 18.5t5 17.5t13 6.5q17 3 20.5 14t3.5 29q0 22 -3.5 29.5
t-26.5 7.5q-29 0 -29 -17q0 -10 -9 -16t-19 -6t-18.5 6t-8.5 16q0 24 18 45t65 21q29 0 46 -8t26 -20.5t11.5 -27.5t2.5 -29q0 -18 -7.5 -36.5t-25.5 -32.5q18 -13 25.5 -32t7.5 -36q0 -14 -2.5 -29.5t-11 -28t-25.5 -20.5t-46 -8q-47 0 -65.5 20.5t-18.5 45.5z" />
    <glyph glyph-name="questiondown" unicode="&#xbf;" horiz-adv-x="322" 
d="M222 453q0 -14 -9 -23t-23 -9t-23.5 9t-9.5 23v20q0 14 9.5 23t23.5 9t23 -9t9 -23v-20zM251 12q-35 -12 -76 -12q-65 0 -95 24t-30 86q0 29 8 49.5t20 36.5t26 28.5t26 25t20 26.5t8 34v37q0 14 9.5 23t23.5 9t23 -9t9 -23v-37q0 -29 -8 -50t-20 -36.5t-26 -27.5
t-26 -24.5t-20 -27t-8 -34.5q0 -14 1 -23.5t7 -16t18.5 -9.5t35.5 -3q24 0 38.5 3t25.5 9q13 0 22 -8.5t9 -20.5q0 -10 -6 -18t-15 -11z" />
    <glyph glyph-name="Agrave" unicode="&#xc0;" horiz-adv-x="357" 
d="M235 220l-56 224l-56 -224h112zM115 452q6 21 23 34.5t40 13.5q24 0 41.5 -13.5t23.5 -34.5l108 -411q1 -3 1 -9q0 -14 -9.5 -23t-24.5 -9q-11 0 -18.5 6t-11.5 15l-39 141h-140l-40 -141q-4 -9 -11.5 -15t-18.5 -6q-15 0 -24.5 9t-9.5 23q0 6 1 9zM120 655q0 2 -0.5 2.5
t-0.5 2.5q0 13 9.5 22.5t22.5 9.5q14 0 22.5 -9.5t10.5 -22.5l15 -88q-1 -9 -8.5 -15.5t-17.5 -6.5q-8 0 -14.5 4.5t-8.5 11.5z" />
    <glyph glyph-name="Aacute" unicode="&#xc1;" horiz-adv-x="357" 
d="M235 220l-56 224l-56 -224h112zM115 452q6 21 23 34.5t40 13.5q24 0 41.5 -13.5t23.5 -34.5l108 -411q1 -3 1 -9q0 -14 -9.5 -23t-24.5 -9q-11 0 -18.5 6t-11.5 15l-39 141h-140l-40 -141q-4 -9 -11.5 -15t-18.5 -6q-15 0 -24.5 9t-9.5 23q0 6 1 9zM211 566
q-2 -7 -8.5 -11.5t-14.5 -4.5q-10 0 -17.5 6.5t-8.5 15.5l15 88q2 13 10.5 22.5t22.5 9.5q13 0 22.5 -9.5t9.5 -22.5q0 -2 -0.5 -2.5t-0.5 -2.5z" />
    <glyph glyph-name="Acircumflex" unicode="&#xc2;" horiz-adv-x="357" 
d="M180 638l-20 -70q-7 -18 -28 -18q-13 0 -21.5 8t-8.5 21q0 4 2 10l22 63q7 16 21.5 25.5t32.5 9.5t32.5 -9.5t21.5 -25.5l22 -63q2 -6 2 -10q0 -13 -8.5 -21t-21.5 -8q-21 0 -28 18zM123 220l56 224l56 -224h-112zM6 41q-1 -3 -1 -9q0 -14 9.5 -23t24.5 -9q11 0 18.5 6
t11.5 15l40 141h140l39 -141q4 -9 11.5 -15t18.5 -6q15 0 24.5 9t9.5 23q0 6 -1 9l-108 411q-6 21 -23.5 34.5t-41.5 13.5q-23 0 -40 -13.5t-23 -34.5z" />
    <glyph glyph-name="Atilde" unicode="&#xc3;" horiz-adv-x="357" 
d="M243 615q7 5 16 5q11 0 18.5 -7.5t7.5 -18.5q0 -14 -12 -23q-13 -10 -26 -15.5t-33 -5.5q-16 0 -26 3.5t-17.5 7.5t-14 7.5t-14.5 3.5q-22 0 -33 -7q-7 -5 -15 -5q-11 0 -18.5 7.5t-7.5 18.5q0 14 12 23q14 11 28 16t34 5q15 0 23.5 -3.5t15.5 -7.5t13.5 -7.5t16.5 -3.5
q12 0 19 1.5t13 5.5zM235 220l-56 224l-56 -224h112zM115 452q6 21 23 34.5t40 13.5q24 0 41.5 -13.5t23.5 -34.5l108 -411q1 -3 1 -9q0 -14 -9.5 -23t-24.5 -9q-11 0 -18.5 6t-11.5 15l-39 141h-140l-40 -141q-4 -9 -11.5 -15t-18.5 -6q-15 0 -24.5 9t-9.5 23q0 6 1 9z" />
    <glyph glyph-name="Adieresis" unicode="&#xc4;" horiz-adv-x="357" 
d="M235 220l-56 224l-56 -224h112zM115 452q6 21 23 34.5t40 13.5q24 0 41.5 -13.5t23.5 -34.5l108 -411q1 -3 1 -9q0 -14 -9.5 -23t-24.5 -9q-11 0 -18.5 6t-11.5 15l-39 141h-140l-40 -141q-4 -9 -11.5 -15t-18.5 -6q-15 0 -24.5 9t-9.5 23q0 6 1 9zM69 602q0 14 9 23
t23 9t23.5 -9t9.5 -23v-20q0 -14 -9.5 -23t-23.5 -9t-23 9t-9 23v20zM224 602q0 14 9 23t23 9t23.5 -9t9.5 -23v-20q0 -14 -9.5 -23t-23.5 -9t-23 9t-9 23v20z" />
    <glyph glyph-name="Aring" unicode="&#xc5;" horiz-adv-x="357" 
d="M180 717q35 0 55 -24.5t20 -59.5q0 -33 -20 -58.5t-55 -25.5t-55 25.5t-20 58.5q0 35 20 59.5t55 24.5zM180 597q18 0 23.5 10.5t5.5 25.5q0 12 -5.5 23t-23.5 11q-14 0 -21.5 -11t-7.5 -23q0 -15 7.5 -25.5t21.5 -10.5zM235 220l-56 224l-56 -224h112zM115 452
q6 21 23 34.5t40 13.5q24 0 41.5 -13.5t23.5 -34.5l108 -411q1 -3 1 -9q0 -14 -9.5 -23t-24.5 -9q-11 0 -18.5 6t-11.5 15l-39 141h-140l-40 -141q-4 -9 -11.5 -15t-18.5 -6q-15 0 -24.5 9t-9.5 23q0 6 1 9z" />
    <glyph glyph-name="AE" unicode="&#xc6;" horiz-adv-x="572" 
d="M252 220v186l-88 -186h88zM225 486q9 14 27 14h243q12 0 20.5 -8.5t8.5 -20.5q0 -11 -8.5 -20t-20.5 -9h-178v-163h145q12 0 20.5 -8.5t8.5 -20.5q0 -11 -8.5 -20t-20.5 -9h-145v-163h178q12 0 20.5 -8.5t8.5 -20.5q0 -11 -8.5 -20t-20.5 -9h-210q-14 0 -23.5 9t-9.5 23
v130h-115l-64 -141q-4 -9 -13.5 -15t-20.5 -6q-15 0 -24.5 9t-9.5 23q0 6 1 9z" />
    <glyph glyph-name="Ccedilla" unicode="&#xc7;" horiz-adv-x="383" 
d="M332 67q10 -2 15.5 -11t5.5 -19q0 -12 -7 -20t-20 -10q-48 -12 -100 -12q-48 0 -82.5 9.5t-56 31t-32 57t-10.5 87.5v140q0 52 10.5 87.5t32 57t56 31t82.5 9.5q57 0 106 -13q10 -2 15.5 -10t5.5 -18q0 -12 -7.5 -20.5t-19.5 -8.5q-48 12 -102 12q-114 0 -114 -120v-154
q0 -120 114 -120q29 0 55.5 3t52.5 11zM190 -69q2 7 8.5 11.5t14.5 4.5q10 0 17.5 -6.5t8.5 -15.5l-15 -88q-2 -13 -10.5 -22.5t-22.5 -9.5q-13 0 -22.5 9.5t-9.5 22.5q0 2 0.5 2.5t0.5 2.5z" />
    <glyph glyph-name="Egrave" unicode="&#xc8;" horiz-adv-x="375" 
d="M88 0q-14 0 -23.5 9t-9.5 23v436q0 14 9.5 23t23.5 9h210q12 0 20.5 -8.5t8.5 -20.5q0 -11 -8.5 -20t-20.5 -9h-178v-163h145q12 0 20.5 -8.5t8.5 -20.5q0 -11 -8.5 -20t-20.5 -9h-145v-163h178q12 0 20.5 -8.5t8.5 -20.5q0 -11 -8.5 -20t-20.5 -9h-210zM143 655
q0 2 -0.5 2.5t-0.5 2.5q0 13 9.5 22.5t22.5 9.5q14 0 22.5 -9.5t10.5 -22.5l15 -88q-1 -9 -8.5 -15.5t-17.5 -6.5q-8 0 -14.5 4.5t-8.5 11.5z" />
    <glyph glyph-name="Eacute" unicode="&#xc9;" horiz-adv-x="375" 
d="M88 0q-14 0 -23.5 9t-9.5 23v436q0 14 9.5 23t23.5 9h210q12 0 20.5 -8.5t8.5 -20.5q0 -11 -8.5 -20t-20.5 -9h-178v-163h145q12 0 20.5 -8.5t8.5 -20.5q0 -11 -8.5 -20t-20.5 -9h-145v-163h178q12 0 20.5 -8.5t8.5 -20.5q0 -11 -8.5 -20t-20.5 -9h-210zM223 566
q-2 -7 -8.5 -11.5t-14.5 -4.5q-10 0 -17.5 6.5t-8.5 15.5l15 88q2 13 10.5 22.5t22.5 9.5q13 0 22.5 -9.5t9.5 -22.5q0 -2 -0.5 -2.5t-0.5 -2.5z" />
    <glyph glyph-name="Ecircumflex" unicode="&#xca;" horiz-adv-x="375" 
d="M298 0q12 0 20.5 9t8.5 20q0 12 -8.5 20.5t-20.5 8.5h-178v163h145q12 0 20.5 9t8.5 20q0 12 -8.5 20.5t-20.5 8.5h-145v163h178q12 0 20.5 9t8.5 20q0 12 -8.5 20.5t-20.5 8.5h-210q-14 0 -23.5 -9t-9.5 -23v-436q0 -14 9.5 -23t23.5 -9h210zM194 638l-20 -70
q-7 -18 -28 -18q-13 0 -21.5 8t-8.5 21q0 4 2 10l22 63q7 16 21.5 25.5t32.5 9.5t32.5 -9.5t21.5 -25.5l22 -63q2 -6 2 -10q0 -13 -8.5 -21t-21.5 -8q-21 0 -28 18z" />
    <glyph glyph-name="Edieresis" unicode="&#xcb;" horiz-adv-x="375" 
d="M88 0q-14 0 -23.5 9t-9.5 23v436q0 14 9.5 23t23.5 9h210q12 0 20.5 -8.5t8.5 -20.5q0 -11 -8.5 -20t-20.5 -9h-178v-163h145q12 0 20.5 -8.5t8.5 -20.5q0 -11 -8.5 -20t-20.5 -9h-145v-163h178q12 0 20.5 -8.5t8.5 -20.5q0 -11 -8.5 -20t-20.5 -9h-210zM80 602
q0 14 9 23t23 9t23.5 -9t9.5 -23v-20q0 -14 -9.5 -23t-23.5 -9t-23 9t-9 23v20zM235 602q0 14 9 23t23 9t23.5 -9t9.5 -23v-20q0 -14 -9.5 -23t-23.5 -9t-23 9t-9 23v20z" />
    <glyph glyph-name="Igrave" unicode="&#xcc;" 
d="M55 468q0 14 9 23t23 9t23.5 -9t9.5 -23v-436q0 -14 -9.5 -23t-23.5 -9t-23 9t-9 23v436zM30 655q0 2 -0.5 2.5t-0.5 2.5q0 13 9.5 22.5t22.5 9.5q14 0 22.5 -9.5t10.5 -22.5l15 -88q-1 -9 -8.5 -15.5t-17.5 -6.5q-8 0 -14.5 4.5t-8.5 11.5z" />
    <glyph glyph-name="Iacute" unicode="&#xcd;" 
d="M55 468q0 14 9 23t23 9t23.5 -9t9.5 -23v-436q0 -14 -9.5 -23t-23.5 -9t-23 9t-9 23v436zM119 566q-2 -7 -8.5 -11.5t-14.5 -4.5q-10 0 -17.5 6.5t-8.5 15.5l15 88q2 13 10.5 22.5t22.5 9.5q13 0 22.5 -9.5t9.5 -22.5q0 -2 -0.5 -2.5t-0.5 -2.5z" />
    <glyph glyph-name="Icircumflex" unicode="&#xce;" 
d="M55 32q0 -14 9 -23t23 -9t23.5 9t9.5 23v436q0 14 -9.5 23t-23.5 9t-23 -9t-9 -23v-436zM87 638l-20 -70q-7 -18 -28 -18q-13 0 -21.5 8t-8.5 21q0 4 2 10l22 63q7 16 21.5 25.5t32.5 9.5t32.5 -9.5t21.5 -25.5l22 -63q2 -6 2 -10q0 -13 -8.5 -21t-21.5 -8q-21 0 -28 18z
" />
    <glyph glyph-name="Idieresis" unicode="&#xcf;" 
d="M55 468q0 14 9 23t23 9t23.5 -9t9.5 -23v-436q0 -14 -9.5 -23t-23.5 -9t-23 9t-9 23v436zM2 602q0 14 9 23t23 9t23.5 -9t9.5 -23v-20q0 -14 -9.5 -23t-23.5 -9t-23 9t-9 23v20zM109 602q0 14 9 23t23 9t23.5 -9t9.5 -23v-20q0 -14 -9.5 -23t-23.5 -9t-23 9t-9 23v20z
" />
    <glyph glyph-name="Eth" unicode="&#xd0;" horiz-adv-x="413" 
d="M47 217h-8q-12 0 -20.5 9t-8.5 20q0 12 8.5 20.5t20.5 8.5h8v193q0 14 9.5 23t23.5 9h101q48 0 83 -9.5t58.5 -31t34.5 -57t11 -87.5v-130q0 -52 -11 -87.5t-34.5 -57t-58.5 -31t-83 -9.5h-101q-14 0 -23.5 9t-9.5 23v185zM112 217v-159h71q57 0 88.5 30t31.5 90v144
q0 60 -31.5 90t-88.5 30h-71v-167h79q12 0 20.5 -8.5t8.5 -20.5q0 -11 -8.5 -20t-20.5 -9h-79z" />
    <glyph glyph-name="Ntilde" unicode="&#xd1;" horiz-adv-x="461" 
d="M406 68q0 -28 -19 -48t-47 -20q-18 0 -33.5 9.5t-23.5 23.5l-163 409v-410q0 -14 -9.5 -23t-23.5 -9t-23 9t-9 23v401q0 27 19 47t46 20q18 0 33.5 -9t23.5 -24l164 -410v411q0 14 9 23t23 9t23.5 -9t9.5 -23v-400zM289 615q7 5 16 5q11 0 18.5 -7.5t7.5 -18.5
q0 -14 -12 -23q-13 -10 -26 -15.5t-33 -5.5q-16 0 -26 3.5t-17.5 7.5t-14 7.5t-14.5 3.5q-22 0 -33 -7q-7 -5 -15 -5q-11 0 -18.5 7.5t-7.5 18.5q0 14 12 23q14 11 28 16t34 5q15 0 23.5 -3.5t15.5 -7.5t13.5 -7.5t16.5 -3.5q12 0 19 1.5t13 5.5z" />
    <glyph glyph-name="Ograve" unicode="&#xd2;" horiz-adv-x="420" 
d="M210 -5q-61 0 -94.5 13.5t-49 37.5t-18.5 58.5t-3 76.5v138q0 42 3 76.5t19 58.5t49.5 37.5t93.5 13.5t93.5 -13.5t49.5 -37.5t19 -58.5t3 -76.5v-138q0 -42 -3 -76.5t-19 -58.5t-49 -37.5t-94 -13.5zM210 447q-34 0 -53.5 -7t-30 -22t-13.5 -40t-3 -61v-134q0 -36 3 -61
t13.5 -40t30.5 -22t53 -7t52.5 7t30 22t14 40t3.5 61v134q0 36 -3 61t-13.5 40t-30 22t-53.5 7zM149 655q0 2 -0.5 2.5t-0.5 2.5q0 13 9.5 22.5t22.5 9.5q14 0 22.5 -9.5t10.5 -22.5l15 -88q-1 -9 -8.5 -15.5t-17.5 -6.5q-8 0 -14.5 4.5t-8.5 11.5z" />
    <glyph glyph-name="Oacute" unicode="&#xd3;" horiz-adv-x="420" 
d="M210 -5q-61 0 -94.5 13.5t-49 37.5t-18.5 58.5t-3 76.5v138q0 42 3 76.5t19 58.5t49.5 37.5t93.5 13.5t93.5 -13.5t49.5 -37.5t19 -58.5t3 -76.5v-138q0 -42 -3 -76.5t-19 -58.5t-49 -37.5t-94 -13.5zM210 447q-34 0 -53.5 -7t-30 -22t-13.5 -40t-3 -61v-134q0 -36 3 -61
t13.5 -40t30.5 -22t53 -7t52.5 7t30 22t14 40t3.5 61v134q0 36 -3 61t-13.5 40t-30 22t-53.5 7zM242 566q-2 -7 -8.5 -11.5t-14.5 -4.5q-10 0 -17.5 6.5t-8.5 15.5l15 88q2 13 10.5 22.5t22.5 9.5q13 0 22.5 -9.5t9.5 -22.5q0 -2 -0.5 -2.5t-0.5 -2.5z" />
    <glyph glyph-name="Ocircumflex" unicode="&#xd4;" horiz-adv-x="420" 
d="M210 -5q-61 0 -94.5 13.5t-49 37.5t-18.5 58.5t-3 76.5v138q0 42 3 76.5t19 58.5t49.5 37.5t93.5 13.5t93.5 -13.5t49.5 -37.5t19 -58.5t3 -76.5v-138q0 -42 -3 -76.5t-19 -58.5t-49 -37.5t-94 -13.5zM210 447q-34 0 -53.5 -7t-30 -22t-13.5 -40t-3 -61v-134q0 -36 3 -61
t13.5 -40t30.5 -22t53 -7t52.5 7t30 22t14 40t3.5 61v134q0 36 -3 61t-13.5 40t-30 22t-53.5 7zM210 638l-20 -70q-7 -18 -28 -18q-13 0 -21.5 8t-8.5 21q0 4 2 10l22 63q7 16 21.5 25.5t32.5 9.5t32.5 -9.5t21.5 -25.5l22 -63q2 -6 2 -10q0 -13 -8.5 -21t-21.5 -8
q-21 0 -28 18z" />
    <glyph glyph-name="Otilde" unicode="&#xd5;" horiz-adv-x="420" 
d="M210 -5q-61 0 -94.5 13.5t-49 37.5t-18.5 58.5t-3 76.5v138q0 42 3 76.5t19 58.5t49.5 37.5t93.5 13.5t93.5 -13.5t49.5 -37.5t19 -58.5t3 -76.5v-138q0 -42 -3 -76.5t-19 -58.5t-49 -37.5t-94 -13.5zM210 447q-34 0 -53.5 -7t-30 -22t-13.5 -40t-3 -61v-134q0 -36 3 -61
t13.5 -40t30.5 -22t53 -7t52.5 7t30 22t14 40t3.5 61v134q0 36 -3 61t-13.5 40t-30 22t-53.5 7zM277 615q7 5 16 5q11 0 18.5 -7.5t7.5 -18.5q0 -14 -12 -23q-13 -10 -26 -15.5t-33 -5.5q-16 0 -26 3.5t-17.5 7.5t-14 7.5t-14.5 3.5q-22 0 -33 -7q-7 -5 -15 -5
q-11 0 -18.5 7.5t-7.5 18.5q0 14 12 23q14 11 28 16t34 5q15 0 23.5 -3.5t15.5 -7.5t13.5 -7.5t16.5 -3.5q12 0 19 1.5t13 5.5z" />
    <glyph glyph-name="Odieresis" unicode="&#xd6;" horiz-adv-x="420" 
d="M210 -5q-61 0 -94.5 13.5t-49 37.5t-18.5 58.5t-3 76.5v138q0 42 3 76.5t19 58.5t49.5 37.5t93.5 13.5t93.5 -13.5t49.5 -37.5t19 -58.5t3 -76.5v-138q0 -42 -3 -76.5t-19 -58.5t-49 -37.5t-94 -13.5zM210 447q-34 0 -53.5 -7t-30 -22t-13.5 -40t-3 -61v-134q0 -36 3 -61
t13.5 -40t30.5 -22t53 -7t52.5 7t30 22t14 40t3.5 61v134q0 36 -3 61t-13.5 40t-30 22t-53.5 7zM117 602q0 14 9 23t23 9t23.5 -9t9.5 -23v-20q0 -14 -9.5 -23t-23.5 -9t-23 9t-9 23v20zM239 602q0 14 9 23t23 9t23.5 -9t9.5 -23v-20q0 -14 -9.5 -23t-23.5 -9t-23 9t-9 23
v20z" />
    <glyph glyph-name="multiply" unicode="&#xd7;" horiz-adv-x="384" 
d="M106 61q-10 -10 -23 -10q-14 0 -23.5 9.5t-9.5 23.5q0 11 9 22l87 86l-87 86q-9 11 -9 22q0 14 9.5 23.5t23.5 9.5q13 0 23 -10l86 -85l86 85q10 10 23 10q14 0 23.5 -9.5t9.5 -23.5q0 -11 -9 -22l-87 -86l87 -86q9 -11 9 -22q0 -14 -9.5 -23.5t-23.5 -9.5q-13 0 -23 10
l-86 85z" />
    <glyph glyph-name="Oslash" unicode="&#xd8;" horiz-adv-x="420" 
d="M110 183q0 -35 3 -59.5t13 -39.5l111 362q-6 1 -12.5 1h-14.5q-34 0 -53.5 -7t-30 -22t-13.5 -40t-3 -61v-134zM310 317q0 36 -3 61t-13 40l-114 -363q7 -2 14.5 -2h15.5q33 0 52.5 7t30 22t14 40t3.5 61v134zM149 -44q-3 -8 -10.5 -14t-17.5 -6q-13 0 -22 9t-9 22l14 46
q-22 11 -34 27.5t-17.5 38t-6.5 47t-1 55.5v138q0 42 3 76.5t19 58.5t49.5 37.5t93.5 13.5q13 0 24 -0.5t21 -1.5l15 47q3 8 10.5 14t17.5 6q13 0 22 -9t9 -22q0 -7 -1 -10l-13 -42q22 -11 34 -27.5t18 -38t7 -47t1 -55.5v-138q0 -42 -3 -76.5t-19 -58.5t-49 -37.5
t-94 -13.5q-27 0 -48 3z" />
    <glyph glyph-name="Ugrave" unicode="&#xd9;" horiz-adv-x="446" 
d="M326 468q0 14 9 23t23 9t23.5 -9t9.5 -23v-287q0 -42 -3 -76.5t-18.5 -58.5t-49.5 -37.5t-97 -13.5t-97 13.5t-49.5 37.5t-18.5 58.5t-3 76.5v287q0 14 9 23t23 9t23.5 -9t9.5 -23v-285q0 -36 3 -61t14 -40t31 -22t55 -7q34 0 54.5 7t31.5 22t14 40t3 61v285zM164 655
q0 2 -0.5 2.5t-0.5 2.5q0 13 9.5 22.5t22.5 9.5q14 0 22.5 -9.5t10.5 -22.5l15 -88q-1 -9 -8.5 -15.5t-17.5 -6.5q-8 0 -14.5 4.5t-8.5 11.5z" />
    <glyph glyph-name="Uacute" unicode="&#xda;" horiz-adv-x="446" 
d="M326 468q0 14 9 23t23 9t23.5 -9t9.5 -23v-287q0 -42 -3 -76.5t-18.5 -58.5t-49.5 -37.5t-97 -13.5t-97 13.5t-49.5 37.5t-18.5 58.5t-3 76.5v287q0 14 9 23t23 9t23.5 -9t9.5 -23v-285q0 -36 3 -61t14 -40t31 -22t55 -7q34 0 54.5 7t31.5 22t14 40t3 61v285zM255 566
q-2 -7 -8.5 -11.5t-14.5 -4.5q-10 0 -17.5 6.5t-8.5 15.5l15 88q2 13 10.5 22.5t22.5 9.5q13 0 22.5 -9.5t9.5 -22.5q0 -2 -0.5 -2.5t-0.5 -2.5z" />
    <glyph glyph-name="Ucircumflex" unicode="&#xdb;" horiz-adv-x="446" 
d="M326 468q0 14 9 23t23 9t23.5 -9t9.5 -23v-287q0 -42 -3 -76.5t-18.5 -58.5t-49.5 -37.5t-97 -13.5t-97 13.5t-49.5 37.5t-18.5 58.5t-3 76.5v287q0 14 9 23t23 9t23.5 -9t9.5 -23v-285q0 -36 3 -61t14 -40t31 -22t55 -7q34 0 54.5 7t31.5 22t14 40t3 61v285zM223 638
l-20 -70q-7 -18 -28 -18q-13 0 -21.5 8t-8.5 21q0 4 2 10l22 63q7 16 21.5 25.5t32.5 9.5t32.5 -9.5t21.5 -25.5l22 -63q2 -6 2 -10q0 -13 -8.5 -21t-21.5 -8q-21 0 -28 18z" />
    <glyph glyph-name="Udieresis" unicode="&#xdc;" horiz-adv-x="446" 
d="M326 468q0 14 9 23t23 9t23.5 -9t9.5 -23v-287q0 -42 -3 -76.5t-18.5 -58.5t-49.5 -37.5t-97 -13.5t-97 13.5t-49.5 37.5t-18.5 58.5t-3 76.5v287q0 14 9 23t23 9t23.5 -9t9.5 -23v-285q0 -36 3 -61t14 -40t31 -22t55 -7q34 0 54.5 7t31.5 22t14 40t3 61v285zM113 602
q0 14 9 23t23 9t23.5 -9t9.5 -23v-20q0 -14 -9.5 -23t-23.5 -9t-23 9t-9 23v20zM268 602q0 14 9 23t23 9t23.5 -9t9.5 -23v-20q0 -14 -9.5 -23t-23.5 -9t-23 9t-9 23v20z" />
    <glyph glyph-name="Yacute" unicode="&#xdd;" horiz-adv-x="367" 
d="M151 216l-130 231q-6 7 -6 20q0 14 9.5 23.5t23.5 9.5q8 0 16 -2.5t12 -9.5l108 -210l107 210q4 7 12 9.5t16 2.5q14 0 23.5 -9.5t9.5 -23.5q0 -13 -6 -20l-130 -231v-184q0 -14 -9.5 -23t-23.5 -9t-23 9t-9 23v184zM218 566q-2 -7 -8.5 -11.5t-14.5 -4.5
q-10 0 -17.5 6.5t-8.5 15.5l15 88q2 13 10.5 22.5t22.5 9.5q13 0 22.5 -9.5t9.5 -22.5q0 -2 -0.5 -2.5t-0.5 -2.5z" />
    <glyph glyph-name="Thorn" unicode="&#xde;" horiz-adv-x="358" 
d="M50 486q0 14 9 23t23 9t23.5 -9t9.5 -23v-70h62q34 0 63 -3t51 -18.5t34.5 -48t12.5 -91.5t-12.5 -91.5t-34.5 -48t-51 -18.5t-63 -3h-62v-62q0 -14 -9.5 -23t-23.5 -9t-23 9t-9 23v454zM176 152q17 0 35.5 2.5t33.5 13t25 31t10 56.5t-10 56.5t-25 31t-33.5 13
t-35.5 2.5h-61v-206h61z" />
    <glyph glyph-name="germandbls" unicode="&#xdf;" horiz-adv-x="374" 
d="M224 0q-13 0 -21.5 8t-8.5 22q0 11 7 18.5t18 9.5q17 1 26 4t13.5 12t5 24.5t0.5 41.5q0 53 -11 73t-49 23q-13 0 -22 9t-9 22t9 22t22 9q18 0 29.5 2t18.5 10.5t9.5 24.5t2.5 43q0 23 -6 35.5t-16.5 18.5t-24.5 7t-30 1q-22 0 -36 -3.5t-22 -17t-11 -39.5t-3 -70v-278
q0 -14 -9.5 -23t-23.5 -9t-23 9t-9 23v277q0 58 5 95t20 58.5t42 30t70 8.5t70.5 -5.5t43.5 -20t22 -38t6 -59.5q0 -26 -2 -43.5t-7 -30.5t-14.5 -22t-25.5 -16q25 -18 37 -50.5t12 -74.5v-12q-1 -40 -5 -64.5t-15 -38.5t-31.5 -19.5t-53.5 -6.5z" />
    <glyph glyph-name="agrave" unicode="&#xe0;" horiz-adv-x="330" 
d="M142 51q23 0 43 7t40 31v100q-7 1 -22.5 1h-26.5q-16 0 -30.5 -2t-26 -9t-18 -20t-6.5 -35q0 -35 7 -54t40 -19zM99 341q-4 -1 -8 -1q-12 0 -19.5 8t-7.5 20q0 10 5.5 18t15.5 10q28 9 65 9q39 0 65.5 -7t43 -24t24 -45t7.5 -70v-227q0 -14 -9.5 -23t-23.5 -9t-23 9
t-9 23q-16 -27 -41 -32t-44 -5q-53 0 -81.5 28t-28.5 99q0 69 34 96.5t93 27.5q11 0 29.5 -3.5t29.5 -15.5h9v33q0 48 -18.5 67.5t-64.5 19.5q-13 0 -24 -2t-19 -4zM112 560q0 2 -0.5 2.5t-0.5 2.5q0 13 9.5 22.5t22.5 9.5q14 0 22.5 -9.5t10.5 -22.5l15 -88
q-1 -9 -8.5 -15.5t-17.5 -6.5q-8 0 -14.5 4.5t-8.5 11.5z" />
    <glyph glyph-name="aacute" unicode="&#xe1;" horiz-adv-x="330" 
d="M142 51q23 0 43 7t40 31v100q-7 1 -22.5 1h-26.5q-16 0 -30.5 -2t-26 -9t-18 -20t-6.5 -35q0 -35 7 -54t40 -19zM99 341q-4 -1 -8 -1q-12 0 -19.5 8t-7.5 20q0 10 5.5 18t15.5 10q28 9 65 9q39 0 65.5 -7t43 -24t24 -45t7.5 -70v-227q0 -14 -9.5 -23t-23.5 -9t-23 9
t-9 23q-16 -27 -41 -32t-44 -5q-53 0 -81.5 28t-28.5 99q0 69 34 96.5t93 27.5q11 0 29.5 -3.5t29.5 -15.5h9v33q0 48 -18.5 67.5t-64.5 19.5q-13 0 -24 -2t-19 -4zM196 471q-2 -7 -8.5 -11.5t-14.5 -4.5q-10 0 -17.5 6.5t-8.5 15.5l15 88q2 13 10.5 22.5t22.5 9.5
q13 0 22.5 -9.5t9.5 -22.5q0 -2 -0.5 -2.5t-0.5 -2.5z" />
    <glyph glyph-name="acircumflex" unicode="&#xe2;" horiz-adv-x="330" 
d="M142 51q-33 0 -40 19t-7 54q0 22 6.5 35t18 20t26 9t30.5 2h26.5t22.5 -1v-100q-20 -24 -40 -31t-43 -7zM99 341q8 2 19 4t24 2q46 0 64.5 -19.5t18.5 -67.5v-33h-9q-11 12 -29.5 15.5t-29.5 3.5q-59 0 -93 -27.5t-34 -96.5q0 -71 28.5 -99t81.5 -28q19 0 44 5t41 32
q0 -14 9 -23t23 -9t23.5 9t9.5 23v227q0 42 -7.5 70t-24 45t-43 24t-65.5 7q-37 0 -65 -9q-10 -2 -15.5 -10t-5.5 -18q0 -12 7.5 -20t19.5 -8q4 0 8 1zM173 543l-20 -70q-7 -18 -28 -18q-13 0 -21.5 8t-8.5 21q0 4 2 10l22 63q7 16 21.5 25.5t32.5 9.5t32.5 -9.5t21.5 -25.5
l22 -63q2 -6 2 -10q0 -13 -8.5 -21t-21.5 -8q-21 0 -28 18z" />
    <glyph glyph-name="atilde" unicode="&#xe3;" horiz-adv-x="330" 
d="M142 51q23 0 43 7t40 31v100q-7 1 -22.5 1h-26.5q-16 0 -30.5 -2t-26 -9t-18 -20t-6.5 -35q0 -35 7 -54t40 -19zM99 341q-4 -1 -8 -1q-12 0 -19.5 8t-7.5 20q0 10 5.5 18t15.5 10q28 9 65 9q39 0 65.5 -7t43 -24t24 -45t7.5 -70v-227q0 -14 -9.5 -23t-23.5 -9t-23 9
t-9 23q-16 -27 -41 -32t-44 -5q-53 0 -81.5 28t-28.5 99q0 69 34 96.5t93 27.5q11 0 29.5 -3.5t29.5 -15.5h9v33q0 48 -18.5 67.5t-64.5 19.5q-13 0 -24 -2t-19 -4zM230 520q7 5 16 5q11 0 18.5 -7.5t7.5 -18.5q0 -14 -12 -23q-13 -10 -26 -15.5t-33 -5.5q-16 0 -26 3.5
t-17.5 7.5t-14 7.5t-14.5 3.5q-22 0 -33 -7q-7 -5 -15 -5q-11 0 -18.5 7.5t-7.5 18.5q0 14 12 23q14 11 28 16t34 5q15 0 23.5 -3.5t15.5 -7.5t13.5 -7.5t16.5 -3.5q12 0 19 1.5t13 5.5z" />
    <glyph glyph-name="adieresis" unicode="&#xe4;" horiz-adv-x="330" 
d="M142 51q23 0 43 7t40 31v100q-7 1 -22.5 1h-26.5q-16 0 -30.5 -2t-26 -9t-18 -20t-6.5 -35q0 -35 7 -54t40 -19zM99 341q-4 -1 -8 -1q-12 0 -19.5 8t-7.5 20q0 10 5.5 18t15.5 10q28 9 65 9q39 0 65.5 -7t43 -24t24 -45t7.5 -70v-227q0 -14 -9.5 -23t-23.5 -9t-23 9
t-9 23q-16 -27 -41 -32t-44 -5q-53 0 -81.5 28t-28.5 99q0 69 34 96.5t93 27.5q11 0 29.5 -3.5t29.5 -15.5h9v33q0 48 -18.5 67.5t-64.5 19.5q-13 0 -24 -2t-19 -4zM73 507q0 14 9 23t23 9t23.5 -9t9.5 -23v-20q0 -14 -9.5 -23t-23.5 -9t-23 9t-9 23v20zM196 507q0 14 9 23
t23 9t23.5 -9t9.5 -23v-20q0 -14 -9.5 -23t-23.5 -9t-23 9t-9 23v20z" />
    <glyph glyph-name="aring" unicode="&#xe5;" horiz-adv-x="330" 
d="M172 623q35 0 55 -24.5t20 -59.5q0 -33 -20 -58.5t-55 -25.5t-55 25.5t-20 58.5q0 35 20 59.5t55 24.5zM172 503q18 0 23.5 10.5t5.5 25.5q0 12 -5.5 23t-23.5 11q-14 0 -21.5 -11t-7.5 -23q0 -15 7.5 -25.5t21.5 -10.5zM142 51q23 0 43 7t40 31v100q-7 1 -22.5 1h-26.5
q-16 0 -30.5 -2t-26 -9t-18 -20t-6.5 -35q0 -35 7 -54t40 -19zM99 341q-4 -1 -8 -1q-12 0 -19.5 8t-7.5 20q0 10 5.5 18t15.5 10q28 9 65 9q39 0 65.5 -7t43 -24t24 -45t7.5 -70v-227q0 -14 -9.5 -23t-23.5 -9t-23 9t-9 23q-16 -27 -41 -32t-44 -5q-53 0 -81.5 28t-28.5 99
q0 69 34 96.5t93 27.5q11 0 29.5 -3.5t29.5 -15.5h9v33q0 48 -18.5 67.5t-64.5 19.5q-13 0 -24 -2t-19 -4z" />
    <glyph glyph-name="ae" unicode="&#xe6;" horiz-adv-x="526" 
d="M142 51q23 0 43 7t40 31v100q-7 1 -22.5 1h-26.5q-16 0 -30.5 -2t-26 -9t-18 -20t-6.5 -35q0 -35 7 -54t40 -19zM358 347q-21 0 -34 -2.5t-20 -13t-10 -32.5t-4 -60v-8h131v35q0 18 -1.5 33t-7.5 25.5t-18.5 16.5t-35.5 6zM370 -5q-45 0 -74.5 10t-46.5 34
q-10 -15 -25 -24t-30.5 -13.5t-30 -5.5t-23.5 -1q-53 0 -81.5 28t-28.5 99q0 69 34 96.5t93 27.5q11 0 29.5 -3.5t29.5 -15.5h9v33q0 48 -18.5 67.5t-64.5 19.5q-13 0 -24 -2t-19 -4q-4 -1 -8 -1q-12 0 -19.5 8t-7.5 20q0 10 5.5 18t15.5 10q28 9 65 9q38 0 64.5 -9
t43.5 -33q15 24 39 33t61 9q45 0 70.5 -10t38 -29.5t16 -49.5t3.5 -69v-42q0 -14 -9.5 -23t-23.5 -9h-163v-45q0 -43 17.5 -59t61.5 -16q22 0 43 2.5t41 7.5q10 -2 15.5 -10.5t5.5 -18.5q0 -12 -7 -20t-20 -10q-18 -4 -37.5 -6.5t-39.5 -2.5z" />
    <glyph glyph-name="ccedilla" unicode="&#xe7;" horiz-adv-x="311" 
d="M255 61q12 0 19.5 -8.5t7.5 -20.5q0 -10 -5.5 -18t-15.5 -10q-36 -9 -76 -9q-77 0 -111 32.5t-34 116.5v112q0 84 34 116.5t111 32.5q21 0 39.5 -2.5t36.5 -7.5q10 -2 15.5 -10t5.5 -18q0 -12 -7.5 -20.5t-19.5 -8.5q-17 5 -34 7t-37 2q-46 0 -62.5 -18.5t-16.5 -66.5
v-124q0 -48 16.5 -66.5t62.5 -18.5q20 0 37 1.5t34 6.5zM115 -158q0 -2 -0.5 -2.5t-0.5 -2.5q0 -13 9.5 -22.5t22.5 -9.5q14 0 22.5 9.5t10.5 22.5l15 88q-1 9 -8.5 15.5t-17.5 6.5q-8 0 -14.5 -4.5t-8.5 -11.5z" />
    <glyph glyph-name="egrave" unicode="&#xe8;" horiz-adv-x="341" 
d="M173 347q-22 0 -35 -2.5t-20 -14t-9.5 -35t-3.5 -64.5h131v35q0 18 -1.5 33t-7.5 25.5t-18.5 16.5t-35.5 6zM262 4q-18 -4 -37.5 -6.5t-39.5 -2.5q-77 0 -111 32.5t-34 116.5v83q0 48 5 82t19 55t40.5 31t68.5 10q45 0 70.5 -10t38 -29.5t16 -49.5t3.5 -69v-42
q0 -14 -9.5 -23t-23.5 -9h-163v-35q0 -48 16.5 -66.5t62.5 -18.5q22 0 43 2.5t41 7.5q10 -2 15.5 -10.5t5.5 -18.5q0 -12 -7 -20t-20 -10zM114 560q0 2 -0.5 2.5t-0.5 2.5q0 13 9.5 22.5t22.5 9.5q14 0 22.5 -9.5t10.5 -22.5l15 -88q-1 -9 -8.5 -15.5t-17.5 -6.5
q-8 0 -14.5 4.5t-8.5 11.5z" />
    <glyph glyph-name="eacute" unicode="&#xe9;" horiz-adv-x="341" 
d="M173 347q-22 0 -35 -2.5t-20 -14t-9.5 -35t-3.5 -64.5h131v35q0 18 -1.5 33t-7.5 25.5t-18.5 16.5t-35.5 6zM262 4q-18 -4 -37.5 -6.5t-39.5 -2.5q-77 0 -111 32.5t-34 116.5v83q0 48 5 82t19 55t40.5 31t68.5 10q45 0 70.5 -10t38 -29.5t16 -49.5t3.5 -69v-42
q0 -14 -9.5 -23t-23.5 -9h-163v-35q0 -48 16.5 -66.5t62.5 -18.5q22 0 43 2.5t41 7.5q10 -2 15.5 -10.5t5.5 -18.5q0 -12 -7 -20t-20 -10zM203 471q-2 -7 -8.5 -11.5t-14.5 -4.5q-10 0 -17.5 6.5t-8.5 15.5l15 88q2 13 10.5 22.5t22.5 9.5q13 0 22.5 -9.5t9.5 -22.5
q0 -2 -0.5 -2.5t-0.5 -2.5z" />
    <glyph glyph-name="ecircumflex" unicode="&#xea;" horiz-adv-x="341" 
d="M173 347q23 0 35.5 -6t18.5 -16.5t7.5 -25.5t1.5 -33v-35h-131q1 41 3.5 64.5t9.5 35t20 14t35 2.5zM262 4q13 2 20 10t7 20q0 10 -5.5 18.5t-15.5 10.5q-20 -5 -41 -7.5t-43 -2.5q-46 0 -62.5 18.5t-16.5 66.5v35h163q14 0 23.5 9t9.5 23v42q0 39 -3.5 69t-16 49.5
t-38 29.5t-70.5 10q-42 0 -68.5 -10t-40.5 -31t-19 -55t-5 -82v-83q0 -84 34 -116.5t111 -32.5q20 0 39.5 2.5t37.5 6.5zM173 543l-20 -70q-7 -18 -28 -18q-13 0 -21.5 8t-8.5 21q0 4 2 10l22 63q7 16 21.5 25.5t32.5 9.5t32.5 -9.5t21.5 -25.5l22 -63q2 -6 2 -10
q0 -13 -8.5 -21t-21.5 -8q-21 0 -28 18z" />
    <glyph glyph-name="edieresis" unicode="&#xeb;" horiz-adv-x="341" 
d="M173 347q-22 0 -35 -2.5t-20 -14t-9.5 -35t-3.5 -64.5h131v35q0 18 -1.5 33t-7.5 25.5t-18.5 16.5t-35.5 6zM262 4q-18 -4 -37.5 -6.5t-39.5 -2.5q-77 0 -111 32.5t-34 116.5v83q0 48 5 82t19 55t40.5 31t68.5 10q45 0 70.5 -10t38 -29.5t16 -49.5t3.5 -69v-42
q0 -14 -9.5 -23t-23.5 -9h-163v-35q0 -48 16.5 -66.5t62.5 -18.5q22 0 43 2.5t41 7.5q10 -2 15.5 -10.5t5.5 -18.5q0 -12 -7 -20t-20 -10zM78 507q0 14 9 23t23 9t23.5 -9t9.5 -23v-20q0 -14 -9.5 -23t-23.5 -9t-23 9t-9 23v20zM201 507q0 14 9 23t23 9t23.5 -9t9.5 -23v-20
q0 -14 -9.5 -23t-23.5 -9t-23 9t-9 23v20z" />
    <glyph glyph-name="igrave" unicode="&#xec;" 
d="M55 368q0 14 9 23t23 9t23.5 -9t9.5 -23v-336q0 -14 -9.5 -23t-23.5 -9t-23 9t-9 23v336zM26 560q0 2 -0.5 2.5t-0.5 2.5q0 13 9.5 22.5t22.5 9.5q14 0 22.5 -9.5t10.5 -22.5l15 -88q-1 -9 -8.5 -15.5t-17.5 -6.5q-8 0 -14.5 4.5t-8.5 11.5z" />
    <glyph glyph-name="iacute" unicode="&#xed;" 
d="M55 368q0 14 9 23t23 9t23.5 -9t9.5 -23v-336q0 -14 -9.5 -23t-23.5 -9t-23 9t-9 23v336zM119 471q-2 -7 -8.5 -11.5t-14.5 -4.5q-10 0 -17.5 6.5t-8.5 15.5l15 88q2 13 10.5 22.5t22.5 9.5q13 0 22.5 -9.5t9.5 -22.5q0 -2 -0.5 -2.5t-0.5 -2.5z" />
    <glyph glyph-name="icircumflex" unicode="&#xee;" 
d="M55 32q0 -14 9 -23t23 -9t23.5 9t9.5 23v336q0 14 -9.5 23t-23.5 9t-23 -9t-9 -23v-336zM87 543l-20 -70q-7 -18 -28 -18q-13 0 -21.5 8t-8.5 21q0 4 2 10l22 63q7 16 21.5 25.5t32.5 9.5t32.5 -9.5t21.5 -25.5l22 -63q2 -6 2 -10q0 -13 -8.5 -21t-21.5 -8q-21 0 -28 18z
" />
    <glyph glyph-name="idieresis" unicode="&#xef;" 
d="M55 368q0 14 9 23t23 9t23.5 -9t9.5 -23v-336q0 -14 -9.5 -23t-23.5 -9t-23 9t-9 23v336zM2 507q0 14 9 23t23 9t23.5 -9t9.5 -23v-20q0 -14 -9.5 -23t-23.5 -9t-23 9t-9 23v20zM109 507q0 14 9 23t23 9t23.5 -9t9.5 -23v-20q0 -14 -9.5 -23t-23.5 -9t-23 9t-9 23v20z
" />
    <glyph glyph-name="eth" unicode="&#xf0;" horiz-adv-x="342" 
d="M171 53q25 0 38.5 10t19.5 25t7 33.5t1 35.5v86q0 17 -1 35.5t-7 33.5t-19.5 25t-38.5 10t-38.5 -10t-19.5 -25t-7 -33.5t-1 -35.5v-86q0 -17 1 -35.5t7 -33.5t19.5 -25t38.5 -10zM136 514q-4 8 -4 16q0 13 8.5 22t22.5 9q8 0 16 -4.5t12 -11.5l24 -42h63q10 0 17 -7
t7 -17t-7 -17t-17 -7h-37q19 -36 31 -62.5t18.5 -47.5t9 -36.5t2.5 -28.5v-124q0 -34 -2 -63.5t-14.5 -51t-39 -34t-75.5 -12.5t-75.5 12.5t-39 34t-14.5 51t-2 63.5v80q0 34 2 64.5t14.5 53.5t39 37t75.5 14h13.5t12.5 -1l-28 51h-74q-10 0 -17 7t-7 17t7 17t17 7h47z" />
    <glyph glyph-name="ntilde" unicode="&#xf1;" horiz-adv-x="366" 
d="M321 32q0 -14 -9.5 -23t-23.5 -9t-23 9t-9 23v203q0 20 -1 40t-6.5 36t-18 26t-34.5 10q-27 0 -42.5 -4.5t-23 -14t-9 -24t-1.5 -33.5v-239q0 -14 -9.5 -23t-23.5 -9t-23 9t-9 23v336q0 14 9.5 23t23.5 9q25 0 32 -22h10q23 20 44.5 23.5t41.5 3.5q37 0 58 -11.5
t31.5 -32t13 -48t2.5 -60.5v-221zM257 520q7 5 16 5q11 0 18.5 -7.5t7.5 -18.5q0 -14 -12 -23q-13 -10 -26 -15.5t-33 -5.5q-16 0 -26 3.5t-17.5 7.5t-14 7.5t-14.5 3.5q-22 0 -33 -7q-7 -5 -15 -5q-11 0 -18.5 7.5t-7.5 18.5q0 14 12 23q14 11 28 16t34 5q15 0 23.5 -3.5
t15.5 -7.5t13.5 -7.5t16.5 -3.5q12 0 19 1.5t13 5.5z" />
    <glyph glyph-name="ograve" unicode="&#xf2;" horiz-adv-x="342" 
d="M171 53q25 0 38.5 10t19.5 25t7 33.5t1 35.5v86q0 17 -1 35.5t-7 33.5t-19.5 25t-38.5 10t-38.5 -10t-19.5 -25t-7 -33.5t-1 -35.5v-86q0 -17 1 -35.5t7 -33.5t19.5 -25t38.5 -10zM171 -5q-49 0 -75.5 12.5t-39 34t-14.5 51t-2 63.5v80q0 34 2 64.5t14.5 53.5t39 37
t75.5 14t75.5 -14t39 -37t14.5 -53.5t2 -64.5v-80q0 -34 -2 -63.5t-14.5 -51t-39 -34t-75.5 -12.5zM112 560q0 2 -0.5 2.5t-0.5 2.5q0 13 9.5 22.5t22.5 9.5q14 0 22.5 -9.5t10.5 -22.5l15 -88q-1 -9 -8.5 -15.5t-17.5 -6.5q-8 0 -14.5 4.5t-8.5 11.5z" />
    <glyph glyph-name="oacute" unicode="&#xf3;" horiz-adv-x="342" 
d="M171 53q25 0 38.5 10t19.5 25t7 33.5t1 35.5v86q0 17 -1 35.5t-7 33.5t-19.5 25t-38.5 10t-38.5 -10t-19.5 -25t-7 -33.5t-1 -35.5v-86q0 -17 1 -35.5t7 -33.5t19.5 -25t38.5 -10zM171 -5q-49 0 -75.5 12.5t-39 34t-14.5 51t-2 63.5v80q0 34 2 64.5t14.5 53.5t39 37
t75.5 14t75.5 -14t39 -37t14.5 -53.5t2 -64.5v-80q0 -34 -2 -63.5t-14.5 -51t-39 -34t-75.5 -12.5zM204 471q-2 -7 -8.5 -11.5t-14.5 -4.5q-10 0 -17.5 6.5t-8.5 15.5l15 88q2 13 10.5 22.5t22.5 9.5q13 0 22.5 -9.5t9.5 -22.5q0 -2 -0.5 -2.5t-0.5 -2.5z" />
    <glyph glyph-name="ocircumflex" unicode="&#xf4;" horiz-adv-x="342" 
d="M171 53q-25 0 -38.5 10t-19.5 25t-7 33.5t-1 35.5v86q0 17 1 35.5t7 33.5t19.5 25t38.5 10t38.5 -10t19.5 -25t7 -33.5t1 -35.5v-86q0 -17 -1 -35.5t-7 -33.5t-19.5 -25t-38.5 -10zM171 -5q49 0 75.5 12.5t39 34t14.5 51t2 63.5v80q0 34 -2 64.5t-14.5 53.5t-39 37
t-75.5 14t-75.5 -14t-39 -37t-14.5 -53.5t-2 -64.5v-80q0 -34 2 -63.5t14.5 -51t39 -34t75.5 -12.5zM171 543l-20 -70q-7 -18 -28 -18q-13 0 -21.5 8t-8.5 21q0 4 2 10l22 63q7 16 21.5 25.5t32.5 9.5t32.5 -9.5t21.5 -25.5l22 -63q2 -6 2 -10q0 -13 -8.5 -21t-21.5 -8
q-21 0 -28 18z" />
    <glyph glyph-name="otilde" unicode="&#xf5;" horiz-adv-x="342" 
d="M171 53q25 0 38.5 10t19.5 25t7 33.5t1 35.5v86q0 17 -1 35.5t-7 33.5t-19.5 25t-38.5 10t-38.5 -10t-19.5 -25t-7 -33.5t-1 -35.5v-86q0 -17 1 -35.5t7 -33.5t19.5 -25t38.5 -10zM171 -5q-49 0 -75.5 12.5t-39 34t-14.5 51t-2 63.5v80q0 34 2 64.5t14.5 53.5t39 37
t75.5 14t75.5 -14t39 -37t14.5 -53.5t2 -64.5v-80q0 -34 -2 -63.5t-14.5 -51t-39 -34t-75.5 -12.5zM237 520q7 5 16 5q11 0 18.5 -7.5t7.5 -18.5q0 -14 -12 -23q-13 -10 -26 -15.5t-33 -5.5q-16 0 -26 3.5t-17.5 7.5t-14 7.5t-14.5 3.5q-22 0 -33 -7q-7 -5 -15 -5
q-11 0 -18.5 7.5t-7.5 18.5q0 14 12 23q14 11 28 16t34 5q15 0 23.5 -3.5t15.5 -7.5t13.5 -7.5t16.5 -3.5q12 0 19 1.5t13 5.5z" />
    <glyph glyph-name="odieresis" unicode="&#xf6;" horiz-adv-x="342" 
d="M171 53q25 0 38.5 10t19.5 25t7 33.5t1 35.5v86q0 17 -1 35.5t-7 33.5t-19.5 25t-38.5 10t-38.5 -10t-19.5 -25t-7 -33.5t-1 -35.5v-86q0 -17 1 -35.5t7 -33.5t19.5 -25t38.5 -10zM171 -5q-49 0 -75.5 12.5t-39 34t-14.5 51t-2 63.5v80q0 34 2 64.5t14.5 53.5t39 37
t75.5 14t75.5 -14t39 -37t14.5 -53.5t2 -64.5v-80q0 -34 -2 -63.5t-14.5 -51t-39 -34t-75.5 -12.5zM77 507q0 14 9 23t23 9t23.5 -9t9.5 -23v-20q0 -14 -9.5 -23t-23.5 -9t-23 9t-9 23v20zM200 507q0 14 9 23t23 9t23.5 -9t9.5 -23v-20q0 -14 -9.5 -23t-23.5 -9t-23 9t-9 23
v20z" />
    <glyph glyph-name="divide" unicode="&#xf7;" horiz-adv-x="401" 
d="M79 167q-12 0 -20.5 9t-8.5 20q0 12 8.5 20.5t20.5 8.5h243q12 0 20.5 -8.5t8.5 -20.5q0 -11 -8.5 -20t-20.5 -9h-243zM169 332q0 14 9 23t23 9t23.5 -9t9.5 -23v-20q0 -14 -9.5 -23t-23.5 -9t-23 9t-9 23v20zM169 79q0 14 9 23t23 9t23.5 -9t9.5 -23v-20q0 -14 -9.5 -23
t-23.5 -9t-23 9t-9 23v20z" />
    <glyph glyph-name="oslash" unicode="&#xf8;" horiz-adv-x="342" 
d="M105 157q0 -14 0.5 -28t3.5 -27l75 244q-3 1 -6.5 1h-6.5q-25 0 -38.5 -10t-19.5 -25t-7 -33.5t-1 -35.5v-86zM237 243q0 13 -0.5 27t-3.5 27l-76 -243q5 -1 14 -1q25 0 38.5 10t19.5 25t7 33.5t1 35.5v86zM260 383q16 -11 24.5 -26.5t12.5 -35t4.5 -41t0.5 -44.5v-80
q0 -34 -2 -63.5t-14.5 -51t-39 -34t-75.5 -12.5h-16.5t-14.5 2l-9 -29q-3 -8 -10 -14t-17 -6q-13 0 -22 9t-9 22q0 7 1 10l8 25q-16 10 -24.5 25t-12.5 33t-4.5 39.5t-0.5 44.5v80q0 34 2 64.5t14.5 53.5t39 37t75.5 14q8 0 15.5 -0.5t14.5 -1.5l9 29q3 8 10.5 14t17.5 6
q13 0 22 -9t9 -22q0 -7 -1 -10z" />
    <glyph glyph-name="ugrave" unicode="&#xf9;" horiz-adv-x="361" 
d="M105 163q0 -20 1 -40t6.5 -36t17.5 -26t35 -10q27 0 42.5 4.5t23 14t9 23.5t1.5 34v241q0 14 9 23t23 9t23.5 -9t9.5 -23v-336q0 -14 -9.5 -23t-23.5 -9q-25 0 -32 22h-10q-23 -20 -44.5 -23.5t-41.5 -3.5q-37 0 -58 11.5t-31.5 32t-13 48t-2.5 60.5v221q0 14 9 23t23 9
t23.5 -9t9.5 -23v-205zM123 560q0 2 -0.5 2.5t-0.5 2.5q0 13 9.5 22.5t22.5 9.5q14 0 22.5 -9.5t10.5 -22.5l15 -88q-1 -9 -8.5 -15.5t-17.5 -6.5q-8 0 -14.5 4.5t-8.5 11.5z" />
    <glyph glyph-name="uacute" unicode="&#xfa;" horiz-adv-x="361" 
d="M105 163q0 -20 1 -40t6.5 -36t17.5 -26t35 -10q27 0 42.5 4.5t23 14t9 23.5t1.5 34v241q0 14 9 23t23 9t23.5 -9t9.5 -23v-336q0 -14 -9.5 -23t-23.5 -9q-25 0 -32 22h-10q-23 -20 -44.5 -23.5t-41.5 -3.5q-37 0 -58 11.5t-31.5 32t-13 48t-2.5 60.5v221q0 14 9 23t23 9
t23.5 -9t9.5 -23v-205zM201 471q-2 -7 -8.5 -11.5t-14.5 -4.5q-10 0 -17.5 6.5t-8.5 15.5l15 88q2 13 10.5 22.5t22.5 9.5q13 0 22.5 -9.5t9.5 -22.5q0 -2 -0.5 -2.5t-0.5 -2.5z" />
    <glyph glyph-name="ucircumflex" unicode="&#xfb;" horiz-adv-x="361" 
d="M105 368q0 14 -9.5 23t-23.5 9t-23 -9t-9 -23v-221q0 -33 2.5 -60.5t13 -48t31.5 -32t58 -11.5q20 0 41.5 3.5t44.5 23.5h10q7 -22 32 -22q14 0 23.5 9t9.5 23v336q0 14 -9.5 23t-23.5 9t-23 -9t-9 -23v-241q0 -20 -1.5 -34t-9 -23.5t-23 -14t-42.5 -4.5q-23 0 -35 10
t-17.5 26t-6.5 36t-1 40v205zM175 543l-20 -70q-7 -18 -28 -18q-13 0 -21.5 8t-8.5 21q0 4 2 10l22 63q7 16 21.5 25.5t32.5 9.5t32.5 -9.5t21.5 -25.5l22 -63q2 -6 2 -10q0 -13 -8.5 -21t-21.5 -8q-21 0 -28 18z" />
    <glyph glyph-name="udieresis" unicode="&#xfc;" horiz-adv-x="361" 
d="M105 163q0 -20 1 -40t6.5 -36t17.5 -26t35 -10q27 0 42.5 4.5t23 14t9 23.5t1.5 34v241q0 14 9 23t23 9t23.5 -9t9.5 -23v-336q0 -14 -9.5 -23t-23.5 -9q-25 0 -32 22h-10q-23 -20 -44.5 -23.5t-41.5 -3.5q-37 0 -58 11.5t-31.5 32t-13 48t-2.5 60.5v221q0 14 9 23t23 9
t23.5 -9t9.5 -23v-205zM83 507q0 14 9 23t23 9t23.5 -9t9.5 -23v-20q0 -14 -9.5 -23t-23.5 -9t-23 9t-9 23v20zM205 507q0 14 9 23t23 9t23.5 -9t9.5 -23v-20q0 -14 -9.5 -23t-23.5 -9t-23 9t-9 23v20z" />
    <glyph glyph-name="yacute" unicode="&#xfd;" horiz-adv-x="311" 
d="M161 -166q-4 -8 -13 -13t-19 -5q-13 0 -21.5 7.5t-10.5 21.5l34 130q2 8 7 10.5t10 4.5v10h-18q-14 0 -25.5 9t-16.5 22l-83 341q2 12 11 20t22 8q19 0 28 -17l82 -322v-10h11v10l82 321q4 8 12 13t18 5q14 0 23.5 -8.5t11.5 -21.5zM181 471q-2 -7 -8.5 -11.5t-14.5 -4.5
q-10 0 -17.5 6.5t-8.5 15.5l15 88q2 13 10.5 22.5t22.5 9.5q13 0 22.5 -9.5t9.5 -22.5q0 -2 -0.5 -2.5t-0.5 -2.5z" />
    <glyph glyph-name="thorn" unicode="&#xfe;" horiz-adv-x="358" 
d="M50 486q0 14 9 23t23 9t23.5 -9t9.5 -23v-81h62q34 0 63 -3t51 -18.5t34.5 -48t12.5 -91.5v-83q0 -59 -12.5 -91.5t-34.5 -48t-51 -18.5t-63 -3h-62v-152q0 -14 -9.5 -23t-23.5 -9t-23 9t-9 23v638zM280 244q0 36 -10 56.5t-25 31t-33.5 13t-35.5 2.5h-61v-289h61
q17 0 35.5 2.5t33.5 13t25 31t10 56.5v83z" />
    <glyph glyph-name="ydieresis" unicode="&#xff;" horiz-adv-x="311" 
d="M161 -166q-4 -8 -13 -13t-19 -5q-13 0 -21.5 7.5t-10.5 21.5l34 130q2 8 7 10.5t10 4.5v10h-18q-14 0 -25.5 9t-16.5 22l-83 341q2 12 11 20t22 8q19 0 28 -17l82 -322v-10h11v10l82 321q4 8 12 13t18 5q14 0 23.5 -8.5t11.5 -21.5zM60 507q0 14 9 23t23 9t23.5 -9
t9.5 -23v-20q0 -14 -9.5 -23t-23.5 -9t-23 9t-9 23v20zM183 507q0 14 9 23t23 9t23.5 -9t9.5 -23v-20q0 -14 -9.5 -23t-23.5 -9t-23 9t-9 23v20z" />
    <glyph glyph-name="dotlessi" unicode="&#x131;" 
d="M55 368q0 14 9 23t23 9t23.5 -9t9.5 -23v-336q0 -14 -9.5 -23t-23.5 -9t-23 9t-9 23v336z" />
    <glyph glyph-name="Lslash" unicode="&#x141;" horiz-adv-x="334" 
d="M62 266v202q0 14 9 23t23 9t23.5 -9t9.5 -23v-191l77 14q12 -1 20.5 -9t8.5 -20q0 -10 -6.5 -18t-16.5 -10l-83 -15v-161h171q10 -2 15.5 -10.5t5.5 -18.5q0 -11 -7 -19t-20 -10h-197q-14 0 -23.5 9t-9.5 23v176l-18 -3q-12 1 -20.5 9t-8.5 20q0 10 7 18t17 10z" />
    <glyph glyph-name="lslash" unicode="&#x142;" horiz-adv-x="186" 
d="M34 206q-12 1 -20.5 9t-8.5 20q0 10 7 18t17 10l23 5v200q0 14 9 23t23 9t23.5 -9t9.5 -23v-189l35 6q12 -1 20.5 -8.5t8.5 -19.5q0 -10 -6.5 -18t-16.5 -10l-41 -8v-189q0 -14 -9.5 -23t-23.5 -9t-23 9t-9 23v178z" />
    <glyph glyph-name="OE" unicode="&#x152;" horiz-adv-x="610" 
d="M224 53q17 0 33.5 1t32.5 4v384q-16 2 -32.5 3.5t-33.5 1.5q-114 0 -114 -120v-154q0 -120 114 -120zM355 442v-163h145q12 0 20.5 -8.5t8.5 -20.5q0 -11 -8.5 -20t-20.5 -9h-145v-163h178q12 0 20.5 -8.5t8.5 -20.5q0 -11 -8.5 -20t-20.5 -9h-241q-16 -2 -32.5 -3.5
t-33.5 -1.5q-48 0 -82.5 9.5t-56 31t-32 57t-10.5 87.5v140q0 52 10.5 87.5t32 57t56 31t82.5 9.5q18 0 34.5 -1.5t33.5 -3.5h239q12 0 20.5 -8.5t8.5 -20.5q0 -11 -8.5 -20t-20.5 -9h-178z" />
    <glyph glyph-name="oe" unicode="&#x153;" horiz-adv-x="538" 
d="M171 53q25 0 38.5 10t19.5 25t7 33.5t1 35.5v86q0 17 -1 35.5t-7 33.5t-19.5 25t-38.5 10t-38.5 -10t-19.5 -25t-7 -33.5t-1 -35.5v-86q0 -17 1 -35.5t7 -33.5t19.5 -25t38.5 -10zM370 347q-22 0 -35 -2.5t-20 -14t-9.5 -35t-3.5 -64.5h131v35q0 18 -1.5 33t-7.5 25.5
t-18.5 16.5t-35.5 6zM302 173v-35q0 -48 16.5 -66.5t62.5 -18.5q22 0 43 2.5t41 7.5q10 -2 15.5 -10.5t5.5 -18.5q0 -12 -7 -20t-20 -10q-18 -4 -37.5 -6.5t-39.5 -2.5q-38 0 -64.5 6.5t-44.5 23.5q-14 -14 -38.5 -22t-63.5 -8q-49 0 -75.5 12.5t-39 34t-14.5 51t-2 63.5v80
q0 34 2 64.5t14.5 53.5t39 37t75.5 14q37 0 61 -9.5t38 -32.5q15 24 39.5 33t60.5 9q45 0 70.5 -10t38 -29.5t16 -49.5t3.5 -69v-42q0 -14 -9.5 -23t-23.5 -9h-163z" />
    <glyph glyph-name="Scaron" unicode="&#x160;" horiz-adv-x="381" 
d="M304 492q10 -2 15.5 -10t5.5 -18q0 -12 -7.5 -20.5t-19.5 -8.5q-18 5 -43.5 8.5t-56.5 3.5q-33 0 -52.5 -6t-29.5 -16.5t-13 -25t-3 -31.5q0 -25 18 -40.5t45.5 -26.5t59.5 -22t59.5 -27.5t45.5 -41.5t18 -66q0 -52 -13.5 -82t-36.5 -45t-53 -18.5t-63 -3.5q-32 0 -67 7
t-61 24q-9 5 -13 12.5t-4 16.5q0 13 9 22.5t23 9.5q22 -12 37.5 -18.5t28.5 -10t24 -4.5t23 -1q18 0 36.5 2.5t32.5 12t23 27.5t9 49q0 24 -18 38.5t-45.5 26t-59.5 22t-59.5 27.5t-45.5 43t-18 67q0 39 8.5 65t28 42t50 23t74.5 7q29 0 56 -3t52 -10zM212 669q7 18 28 18
q13 0 21.5 -8t8.5 -21q0 -4 -2 -10l-22 -63q-7 -16 -21.5 -25.5t-32.5 -9.5t-32.5 9.5t-21.5 25.5l-22 63q-2 6 -2 10q0 13 8.5 21t21.5 8q21 0 28 -18l20 -70z" />
    <glyph glyph-name="scaron" unicode="&#x161;" horiz-adv-x="299" 
d="M223 339q12 0 19.5 8.5t7.5 20.5q0 10 -5.5 18t-15.5 10q-17 5 -35 7t-40 2q-54 0 -89 -24t-35 -86q0 -33 13 -54t32 -34.5t42 -22t42 -17.5t32 -21t13 -31q0 -32 -8.5 -47t-43.5 -15q-20 0 -41 4t-41 11q-14 0 -22 -9.5t-8 -21.5q0 -25 29 -31q39 -11 83 -11q63 0 90 27
t27 93q0 34 -13 55t-32 34.5t-42 21.5t-42 16.5t-32 20.5t-13 32q0 27 12 39.5t49 12.5q22 0 38 -2t29 -6zM168 574q7 18 28 18q13 0 21.5 -8t8.5 -21q0 -4 -2 -10l-22 -63q-7 -16 -21.5 -25.5t-32.5 -9.5t-32.5 9.5t-21.5 25.5l-22 63q-2 6 -2 10q0 13 8.5 21t21.5 8
q21 0 28 -18l20 -70z" />
    <glyph glyph-name="Ydieresis" unicode="&#x178;" horiz-adv-x="367" 
d="M151 216l-130 231q-6 7 -6 20q0 14 9.5 23.5t23.5 9.5q8 0 16 -2.5t12 -9.5l108 -210l107 210q4 7 12 9.5t16 2.5q14 0 23.5 -9.5t9.5 -23.5q0 -13 -6 -20l-130 -231v-184q0 -14 -9.5 -23t-23.5 -9t-23 9t-9 23v184zM76 602q0 14 9 23t23 9t23.5 -9t9.5 -23v-20
q0 -14 -9.5 -23t-23.5 -9t-23 9t-9 23v20zM231 602q0 14 9 23t23 9t23.5 -9t9.5 -23v-20q0 -14 -9.5 -23t-23.5 -9t-23 9t-9 23v20z" />
    <glyph glyph-name="Zcaron" unicode="&#x17d;" horiz-adv-x="360" 
d="M44 500q-12 0 -20.5 -8.5t-8.5 -20.5q0 -11 8.5 -20t20.5 -9h217l-238 -377q-8 -11 -8 -26q0 -17 11 -28t28 -11h245q12 0 20.5 9t8.5 20q0 12 -8.5 20.5t-20.5 8.5h-195l233 377q8 11 8 26q0 17 -10 28t-27 11h-264zM197 669q7 18 28 18q13 0 21.5 -8t8.5 -21
q0 -4 -2 -10l-22 -63q-7 -16 -21.5 -25.5t-32.5 -9.5t-32.5 9.5t-21.5 25.5l-22 63q-2 6 -2 10q0 13 8.5 21t21.5 8q21 0 28 -18l20 -70z" />
    <glyph glyph-name="zcaron" unicode="&#x17e;" horiz-adv-x="316" 
d="M252 0q12 0 20.5 9t8.5 20q0 12 -8.5 20.5t-20.5 8.5h-135q51 90 83 145t49 86q20 36 29 53q2 4 2.5 9t0.5 10q0 17 -10.5 28t-27.5 11h-179q-12 0 -20.5 -8.5t-8.5 -20.5q0 -11 8.5 -20t20.5 -9h140l-161 -277q-8 -11 -8 -26q0 -17 11 -28t28 -11h178zM182 574
q7 18 28 18q13 0 21.5 -8t8.5 -21q0 -4 -2 -10l-22 -63q-7 -16 -21.5 -25.5t-32.5 -9.5t-32.5 9.5t-21.5 25.5l-22 63q-2 6 -2 10q0 13 8.5 21t21.5 8q21 0 28 -18l20 -70z" />
    <glyph glyph-name="florin" unicode="&#x192;" horiz-adv-x="219" 
d="M207 460q-5 1 -9 1h-10q-17 0 -26 -4t-14 -13t-7.5 -25t-4.5 -40l-1 -11h54q12 0 20.5 -8.5t8.5 -20.5q0 -11 -8 -20t-20 -9h-61l-44 -463q0 -14 -9.5 -23.5t-23.5 -9.5t-23 9t-9 23l44 464h-15q-12 0 -20.5 9t-8.5 20q0 12 8.5 20.5t20.5 8.5h21l1 11q4 42 11.5 69
t20.5 42.5t31.5 22t44.5 6.5q5 0 13.5 -1t20.5 -3q21 -5 21 -27q0 -11 -7 -19.5t-20 -8.5z" />
    <glyph glyph-name="circumflex" unicode="&#x2c6;" horiz-adv-x="256" 
d="M128 487l-20 -70q-7 -18 -28 -18q-13 0 -21.5 8t-8.5 21q0 4 2 10l22 63q7 16 21.5 25.5t32.5 9.5t32.5 -9.5t21.5 -25.5l22 -63q2 -6 2 -10q0 -13 -8.5 -21t-21.5 -8q-21 0 -28 18z" />
    <glyph glyph-name="caron" unicode="&#x2c7;" horiz-adv-x="256" 
d="M148 518q7 18 28 18q13 0 21.5 -8t8.5 -21q0 -4 -2 -10l-22 -63q-7 -16 -21.5 -25.5t-32.5 -9.5t-32.5 9.5t-21.5 25.5l-22 63q-2 6 -2 10q0 13 8.5 21t21.5 8q21 0 28 -18l20 -70z" />
    <glyph glyph-name="breve" unicode="&#x2d8;" horiz-adv-x="352" 
d="M176 374q-33 0 -56.5 3.5t-39 13.5t-23 28.5t-7.5 49.5q0 14 9 22.5t22 8.5t22 -7.5t11 -19.5q1 -11 4 -18t9.5 -11.5t18 -6.5t30.5 -2t30.5 2t18 6.5t9 11.5t4.5 18q2 12 11 19.5t22 7.5t22 -8.5t9 -22.5q0 -31 -7.5 -49.5t-23 -28.5t-39 -13.5t-56.5 -3.5z" />
    <glyph glyph-name="dotaccent" unicode="&#x2d9;" horiz-adv-x="165" 
d="M50 504q0 14 9 23t23 9t23.5 -9t9.5 -23v-20q0 -14 -9.5 -23t-23.5 -9t-23 9t-9 23v20z" />
    <glyph glyph-name="ring" unicode="&#x2da;" horiz-adv-x="250" 
d="M125 536q35 0 55 -24.5t20 -59.5q0 -33 -20 -58.5t-55 -25.5t-55 25.5t-20 58.5q0 35 20 59.5t55 24.5zM125 416q18 0 23.5 10.5t5.5 25.5q0 12 -5.5 23t-23.5 11q-14 0 -21.5 -11t-7.5 -23q0 -15 7.5 -25.5t21.5 -10.5z" />
    <glyph glyph-name="ogonek" unicode="&#x2db;" horiz-adv-x="180" 
d="M129 -158q0 -2 0.5 -2.5t0.5 -2.5q0 -13 -9.5 -22.5t-22.5 -9.5q-14 0 -22.5 9.5t-10.5 22.5l-15 88q1 9 8.5 15.5t17.5 6.5q8 0 14.5 -4.5t8.5 -11.5z" />
    <glyph glyph-name="tilde" unicode="&#x2dc;" horiz-adv-x="317" 
d="M225 521q7 5 16 5q11 0 18.5 -7.5t7.5 -18.5q0 -14 -12 -23q-13 -10 -26 -15.5t-33 -5.5q-16 0 -26 3.5t-17.5 7.5t-14 7.5t-14.5 3.5q-22 0 -33 -7q-7 -5 -15 -5q-11 0 -18.5 7.5t-7.5 18.5q0 14 12 23q14 11 28 16t34 5q15 0 23.5 -3.5t15.5 -7.5t13.5 -7.5t16.5 -3.5
q12 0 19 1.5t13 5.5z" />
    <glyph glyph-name="hungarumlaut" unicode="&#x2dd;" horiz-adv-x="266" 
d="M92 431q-7 -14 -20 -14q-8 0 -14.5 6t-7.5 14l12 70q2 12 9.5 20.5t19.5 8.5t20.5 -8.5t8.5 -20.5q0 -3 -2 -9zM188 431q-7 -14 -20 -14q-8 0 -14.5 6t-7.5 14l12 70q2 12 9.5 20.5t19.5 8.5t20.5 -8.5t8.5 -20.5q0 -3 -2 -9z" />
    <glyph glyph-name="pi" unicode="&#x3c0;" horiz-adv-x="486" 
d="M404 409q14 0 23 -9.5t9 -23.5q0 -13 -9 -22.5t-23 -9.5h-48v-312q0 -14 -9.5 -23t-23.5 -9t-23 9t-9 23v312h-96v-312q0 -14 -9.5 -23t-23.5 -9t-23 9t-9 23v312h-48q-14 0 -23 9.5t-9 22.5q0 14 9 23.5t23 9.5h322z" />
    <glyph glyph-name="ZWSP" unicode="&#x200b;" horiz-adv-x="0" 
 />
    <glyph glyph-name="endash" unicode="&#x2013;" horiz-adv-x="439" 
d="M79 167q-12 0 -20.5 9t-8.5 20q0 12 8.5 20.5t20.5 8.5h281q12 0 20.5 -8.5t8.5 -20.5q0 -11 -8.5 -20t-20.5 -9h-281z" />
    <glyph glyph-name="emdash" unicode="&#x2014;" horiz-adv-x="525" 
d="M79 167q-12 0 -20.5 9t-8.5 20q0 12 8.5 20.5t20.5 8.5h367q12 0 20.5 -8.5t8.5 -20.5q0 -11 -8.5 -20t-20.5 -9h-367z" />
    <glyph glyph-name="quoteleft" unicode="&#x2018;" horiz-adv-x="170" 
d="M77 522q5 14 20 14q9 0 15.5 -5.5t7.5 -13.5l-13 -77q-2 -11 -9.5 -19.5t-19.5 -8.5q-11 0 -19.5 8.5t-8.5 19.5q0 2 0.5 2.5t0.5 1.5z" />
    <glyph glyph-name="quoteright" unicode="&#x2019;" horiz-adv-x="170" 
d="M93 426q-5 -14 -20 -14q-9 0 -15.5 5.5t-7.5 13.5l13 77q2 11 9.5 19.5t19.5 8.5q11 0 19.5 -8.5t8.5 -19.5q0 -2 -0.5 -2.5t-0.5 -1.5z" />
    <glyph glyph-name="quotesinglbase" unicode="&#x201a;" horiz-adv-x="170" 
d="M93 -54q-5 -14 -20 -14q-9 0 -15.5 5.5t-7.5 13.5l13 77q2 11 9.5 19.5t19.5 8.5q11 0 19.5 -8.5t8.5 -19.5q0 -2 -0.5 -2.5t-0.5 -1.5z" />
    <glyph glyph-name="quotedblleft" unicode="&#x201c;" horiz-adv-x="265" 
d="M77 522q5 14 20 14q9 0 15.5 -5.5t7.5 -13.5l-13 -77q-2 -11 -9.5 -19.5t-19.5 -8.5q-11 0 -19.5 8.5t-8.5 19.5q0 2 0.5 2.5t0.5 1.5zM172 522q5 14 20 14q9 0 15.5 -5.5t7.5 -13.5l-13 -77q-2 -11 -9.5 -19.5t-19.5 -8.5q-11 0 -19.5 8.5t-8.5 19.5q0 2 0.5 2.5
t0.5 1.5z" />
    <glyph glyph-name="quotedblright" unicode="&#x201d;" horiz-adv-x="265" 
d="M188 426q-5 -14 -20 -14q-9 0 -15.5 5.5t-7.5 13.5l13 77q2 11 9.5 19.5t19.5 8.5q11 0 19.5 -8.5t8.5 -19.5q0 -2 -0.5 -2.5t-0.5 -1.5zM93 426q-5 -14 -20 -14q-9 0 -15.5 5.5t-7.5 13.5l13 77q2 11 9.5 19.5t19.5 8.5q11 0 19.5 -8.5t8.5 -19.5q0 -2 -0.5 -2.5
t-0.5 -1.5z" />
    <glyph glyph-name="quotedblbase" unicode="&#x201e;" horiz-adv-x="265" 
d="M188 -54q-5 -14 -20 -14q-9 0 -15.5 5.5t-7.5 13.5l13 77q2 11 9.5 19.5t19.5 8.5q11 0 19.5 -8.5t8.5 -19.5q0 -2 -0.5 -2.5t-0.5 -1.5zM93 -54q-5 -14 -20 -14q-9 0 -15.5 5.5t-7.5 13.5l13 77q2 11 9.5 19.5t19.5 8.5q11 0 19.5 -8.5t8.5 -19.5q0 -2 -0.5 -2.5
t-0.5 -1.5z" />
    <glyph glyph-name="dagger" unicode="&#x2020;" horiz-adv-x="343" 
d="M204 -148q0 -14 -9.5 -23t-23.5 -9t-23 9t-9 23v481h-60q-12 0 -20.5 9t-8.5 20q0 12 8.5 20.5t20.5 8.5h60v98q0 14 9 23t23 9t23.5 -9t9.5 -23v-98h60q12 0 20.5 -8.5t8.5 -20.5q0 -11 -8.5 -20t-20.5 -9h-60v-481z" />
    <glyph glyph-name="daggerdbl" unicode="&#x2021;" horiz-adv-x="343" 
d="M204 0v-148q0 -14 -9.5 -23t-23.5 -9t-23 9t-9 23v148h-60q-12 0 -20.5 9t-8.5 20q0 12 8.5 20.5t20.5 8.5h60v275h-60q-12 0 -20.5 9t-8.5 20q0 12 8.5 20.5t20.5 8.5h60v98q0 14 9 23t23 9t23.5 -9t9.5 -23v-98h60q12 0 20.5 -8.5t8.5 -20.5q0 -11 -8.5 -20t-20.5 -9
h-60v-275h60q12 0 20.5 -8.5t8.5 -20.5q0 -11 -8.5 -20t-20.5 -9h-60z" />
    <glyph glyph-name="bullet" unicode="&#x2022;" horiz-adv-x="246" 
d="M50 196q0 31 21.5 52t51.5 21t51.5 -21t21.5 -52q0 -30 -21.5 -51t-51.5 -21t-51.5 21t-21.5 51z" />
    <glyph glyph-name="ellipsis" unicode="&#x2026;" horiz-adv-x="425" 
d="M50 52q0 14 9 23t23 9t23.5 -9t9.5 -23v-20q0 -14 -9.5 -23t-23.5 -9t-23 9t-9 23v20zM180 52q0 14 9 23t23 9t23.5 -9t9.5 -23v-20q0 -14 -9.5 -23t-23.5 -9t-23 9t-9 23v20zM310 52q0 14 9 23t23 9t23.5 -9t9.5 -23v-20q0 -14 -9.5 -23t-23.5 -9t-23 9t-9 23v20z" />
    <glyph glyph-name="perthousand" unicode="&#x2030;" horiz-adv-x="792" 
d="M649 0q-38 0 -65.5 16t-27.5 58v86q0 19 8 33t21 23t29.5 13.5t34.5 4.5t34.5 -4.5t29.5 -13.5t21 -23t8 -33v-86q0 -42 -27.5 -58t-65.5 -16zM649 190q-28 0 -35.5 -10t-7.5 -20v-86q0 -14 7.5 -21.5t35.5 -7.5t35.5 7.5t7.5 21.5v86q0 10 -7.5 20t-35.5 10zM143 266
q-38 0 -65.5 16t-27.5 58v86q0 19 8 33t21 23t29.5 13.5t34.5 4.5t34.5 -4.5t29.5 -13.5t21 -23t8 -33v-86q0 -42 -27.5 -58t-65.5 -16zM143 456q-28 0 -35.5 -10t-7.5 -20v-86q0 -14 7.5 -21.5t35.5 -7.5t35.5 7.5t7.5 21.5v86q0 10 -7.5 20t-35.5 10zM418 0
q-38 0 -65.5 16t-27.5 58v86q0 19 8 33t21 23t29.5 13.5t34.5 4.5t34.5 -4.5t29.5 -13.5t21 -23t8 -33v-86q0 -42 -27.5 -58t-65.5 -16zM418 190q-28 0 -35.5 -10t-7.5 -20v-86q0 -14 7.5 -21.5t35.5 -7.5t35.5 7.5t7.5 21.5v86q0 10 -7.5 20t-35.5 10zM404 457q3 6 3 12
q0 12 -9 21.5t-21 9.5q-19 0 -27 -17l-191 -442q-3 -6 -3 -13q0 -12 8 -20t20 -8q9 0 15.5 4.5t10.5 11.5z" />
    <glyph glyph-name="guilsinglleft" unicode="&#x2039;" horiz-adv-x="352" 
d="M97 111q-21 8 -34 27.5t-13 43.5q0 27 13.5 48t34.5 29l173 90q13 0 22 -9t9 -22q0 -9 -6 -17.5t-14 -12.5l-176 -98h-10v-11h10l176 -100q8 -4 14 -12.5t6 -17.5q0 -13 -9 -22t-22 -9z" />
    <glyph glyph-name="guilsinglright" unicode="&#x203a;" horiz-adv-x="352" 
d="M81 18q-13 0 -22 9t-9 22q0 9 6 17.5t14 12.5l176 100h10v11h-10l-176 98q-8 4 -14 12.5t-6 17.5q0 13 9 22t22 9l173 -90q21 -8 34.5 -29t13.5 -48q0 -24 -13 -43.5t-34 -27.5z" />
    <glyph glyph-name="fraction" unicode="&#x2044;" horiz-adv-x="315" 
d="M204 536q3 9 11.5 15.5t18.5 6.5q13 0 22 -9t9 -22q0 -3 -2 -9l-152 -496q-3 -9 -11.5 -15.5t-18.5 -6.5q-13 0 -22 9t-9 22z" />
    <glyph glyph-name="Euro" unicode="&#x20ac;" horiz-adv-x="455" 
d="M164 143q13 -90 112 -90q29 0 55.5 3t52.5 11q10 -2 15.5 -11t5.5 -19q0 -12 -7 -20t-20 -10q-48 -12 -100 -12q-87 0 -130 32.5t-50 115.5h-19q-12 0 -20.5 9t-8.5 20q0 12 8.5 20.5t20.5 8.5h18v88h-18q-12 0 -20.5 9t-8.5 20q0 12 8.5 20.5t20.5 8.5h19q5 88 48 123
t132 35q57 0 106 -13q10 -2 15.5 -10t5.5 -18q0 -12 -7.5 -20.5t-19.5 -8.5q-48 12 -102 12q-105 0 -114 -100h43q12 0 20.5 -8.5t8.5 -20.5q0 -11 -8.5 -20t-20.5 -9h-43v-88h43q12 0 20.5 -8.5t8.5 -20.5q0 -11 -8.5 -20t-20.5 -9h-41z" />
    <glyph glyph-name="trademark" unicode="&#x2122;" horiz-adv-x="627" 
d="M177 219q0 -11 -8.5 -19t-19.5 -8t-19 8t-8 19v232h-48q-10 0 -17 7t-7 17q0 11 7 18t17 7h153q10 0 17 -7t7 -18q0 -10 -7 -17t-17 -7h-50v-232zM426 192q-12 0 -23 7t-14 18l-59 220v-218q0 -11 -8 -19t-20 -8q-11 0 -19 8t-8 19v224q0 24 14 40.5t38 16.5
q20 0 33.5 -11.5t18.5 -29.5l47 -187l47 187q5 18 18.5 29.5t33.5 11.5q24 0 38 -16.5t14 -40.5v-224q0 -11 -8 -19t-19 -8q-12 0 -20 8t-8 19v218l-59 -220q-3 -11 -14 -18t-23 -7z" />
    <glyph glyph-name="Omega" unicode="&#x2126;" horiz-adv-x="470" 
d="M237 447q-118 0 -118 -120v-133q0 -24 7 -46t17.5 -39.5t23 -30.5t24.5 -19q17 -9 17 -29q0 -13 -9 -21.5t-23 -8.5h-97q-12 0 -20.5 9t-8.5 20q0 12 8.5 20.5t20.5 8.5h24q-21 23 -35 56.5t-14 80.5v116q0 104 42.5 149t138.5 45t138.5 -45t42.5 -149v-116
q0 -47 -14 -80.5t-35 -56.5h24q12 0 20.5 -8.5t8.5 -20.5q0 -11 -8.5 -20t-20.5 -9h-97q-14 0 -23 8.5t-9 21.5q0 20 17 29q12 6 24.5 19t23 30.5t17.5 39.5t7 46v133q0 120 -114 120z" />
    <glyph glyph-name="partialdiff" unicode="&#x2202;" horiz-adv-x="363" 
d="M115 157q0 -17 1 -35.5t7 -33.5t19.5 -25t38.5 -10t38.5 10t20 25t7.5 33.5t1 35.5v66q0 16 -1 31.5t-8.5 28t-23.5 20t-45 7.5q-21 0 -32 -10t-16 -25t-6 -33.5t-1 -35.5v-49zM313 32q0 -14 -9 -23t-23 -9t-23.5 8.5t-9.5 22.5q-12 -14 -21.5 -21t-18.5 -10.5t-19.5 -4
t-24.5 -0.5q-33 0 -54.5 12.5t-35 34t-19 51t-5.5 63.5v51q0 34 1.5 63t12 51t33.5 34.5t65 12.5q5 0 14 -0.5t19.5 -3t22 -8t21.5 -15.5h9v19q0 48 -18.5 67.5t-64.5 19.5q-13 0 -24 -2t-19 -4q-4 -1 -8 -1q-12 0 -19.5 8t-7.5 20q0 10 5.5 18t15.5 10q28 9 65 9
q39 0 65.5 -7t43 -24t24 -45t7.5 -70v-327z" />
    <glyph glyph-name="Delta" unicode="&#x2206;" horiz-adv-x="508" 
d="M386 62l-132 374l-132 -374h264zM86 0q-15 0 -25.5 11t-10.5 26q0 5 2 13l148 413q6 17 20.5 27.5t33.5 10.5t33.5 -10.5t20.5 -27.5l148 -413q2 -8 2 -13q0 -15 -10.5 -26t-25.5 -11h-336z" />
    <glyph glyph-name="product" unicode="&#x220f;" horiz-adv-x="486" 
d="M404 500q14 0 23 -9.5t9 -23.5q0 -13 -9 -22.5t-23 -9.5h-48v-583q0 -14 -9.5 -23t-23.5 -9t-23 9t-9 23v583h-96v-583q0 -14 -9.5 -23t-23.5 -9t-23 9t-9 23v583h-48q-14 0 -23 9.5t-9 22.5q0 14 9 23.5t23 9.5h322z" />
    <glyph glyph-name="summation" unicode="&#x2211;" horiz-adv-x="374" 
d="M50 -128q0 5 1 10.5t2 10.5l108 260q3 7 3 17q0 5 -1 9.5t-3 9.5l-107 258q-2 8 -2.5 10.5t-0.5 10.5q0 14 9.5 23t23.5 9h220q10 -2 15.5 -10.5t5.5 -18.5q0 -26 -27 -29h-169l105 -253q2 -5 3 -9.5t1 -9.5q0 -10 -3 -17l-106 -255h175q10 -2 15.5 -10.5t5.5 -18.5
q0 -26 -27 -29h-214q-14 0 -23.5 9t-9.5 23z" />
    <glyph glyph-name="minus" unicode="&#x2212;" horiz-adv-x="394" 
d="M79 167q-12 0 -20.5 9t-8.5 20q0 12 8.5 20.5t20.5 8.5h236q12 0 20.5 -8.5t8.5 -20.5q0 -11 -8.5 -20t-20.5 -9h-236z" />
    <glyph glyph-name="radical" unicode="&#x221a;" horiz-adv-x="494" 
d="M315 498q4 10 12 16.5t19 6.5h69q12 0 20.5 -8.5t8.5 -20.5q0 -11 -8.5 -20t-20.5 -9h-41l-112 -419q-7 -19 -24 -31.5t-39 -12.5q-21 0 -37.5 12t-23.5 32l-88 324q0 14 10 23t24 9q23 0 31 -22l85 -327z" />
    <glyph glyph-name="infinity" unicode="&#x221e;" horiz-adv-x="854" 
d="M428 190q-20 -23 -43 -44t-48.5 -37t-54 -25.5t-59.5 -9.5q-45 0 -77.5 7t-53.5 25t-31.5 48.5t-10.5 77.5v13q0 47 10.5 77.5t31.5 48.5t53.5 25t77.5 7q67 0 115.5 -33.5t88.5 -81.5q40 48 88.5 81.5t115.5 33.5q45 0 77.5 -7t53.5 -25t31.5 -48.5t10.5 -77.5v-13
q0 -47 -10.5 -77.5t-31.5 -48.5t-53.5 -25t-77.5 -7q-32 0 -60 9.5t-53.5 25.5t-48 37t-41.5 44zM223 342q-27 0 -47.5 -4t-34 -14.5t-20 -29.5t-6.5 -49v-13q0 -30 6.5 -49t20 -29.5t34 -14.5t47.5 -4q44 0 85 29.5t79 72.5q-38 43 -80 74t-84 31zM631 342q-42 0 -84 -31
t-80 -74q38 -43 79 -72.5t85 -29.5q27 0 47.5 4t34 14.5t20 29.5t6.5 49v13q0 30 -6.5 49t-20 29.5t-34 14.5t-47.5 4z" />
    <glyph glyph-name="integral" unicode="&#x222b;" horiz-adv-x="395" 
d="M165 381q0 42 5 69t17 42.5t31.5 22t48.5 6.5q32 0 49 -4q9 -2 19 -10.5t10 -19.5q0 -12 -8.5 -20.5t-20.5 -8.5q-8 2 -19 3.5t-28 1.5q-15 0 -22.5 -4t-11.5 -13t-4.5 -25t-0.5 -40v-425q0 -42 -5 -69t-17 -42.5t-31.5 -22t-48.5 -6.5q-32 0 -49 4q-9 2 -19 10.5
t-10 19.5q0 12 8.5 20.5t20.5 8.5q8 -2 19 -3.5t28 -1.5q15 0 22.5 4t11.5 13t4.5 25t0.5 40v425z" />
    <glyph glyph-name="approxequal" unicode="&#x2248;" horiz-adv-x="381" 
d="M247 204q-16 0 -30.5 5.5t-28.5 11.5t-27.5 11.5t-27.5 5.5q-25 0 -41 -11q-7 -5 -16 -5q-11 0 -18.5 7.5t-7.5 18.5q0 13 11 22q17 12 34 19t38 7q25 0 39.5 -5.5t25.5 -11.5t21.5 -11.5t28.5 -5.5q14 0 23 2.5t18 8.5q7 5 16 5q11 0 18.5 -7.5t7.5 -18.5q0 -13 -11 -22
q-17 -12 -34.5 -19t-38.5 -7zM247 85q-16 0 -30.5 5.5t-28.5 11.5t-27.5 11.5t-27.5 5.5q-25 0 -41 -11q-7 -5 -16 -5q-11 0 -18.5 7.5t-7.5 18.5q0 13 11 22q17 12 34 19t38 7q25 0 39.5 -5.5t25.5 -11.5t21.5 -11.5t28.5 -5.5q14 0 23 2.5t18 8.5q7 5 16 5q11 0 18.5 -7.5
t7.5 -18.5q0 -13 -11 -22q-17 -12 -34.5 -19t-38.5 -7z" />
    <glyph glyph-name="notequal" unicode="&#x2260;" horiz-adv-x="306" 
d="M97 89h-18q-12 0 -20.5 9t-8.5 20q0 12 8.5 20.5t20.5 8.5h35l26 88h-61q-12 0 -20.5 9t-8.5 20q0 12 8.5 20.5t20.5 8.5h79l20 67q3 8 10.5 14t17.5 6q13 0 22 -9t9 -22q0 -7 -1 -10l-14 -46h5q12 0 20.5 -8.5t8.5 -20.5q0 -11 -8.5 -20t-20.5 -9h-23l-26 -88h49
q12 0 20.5 -8.5t8.5 -20.5q0 -11 -8.5 -20t-20.5 -9h-67l-22 -74q-3 -8 -10.5 -14t-17.5 -6q-13 0 -22 9t-9 22z" />
    <glyph glyph-name="lessequal" unicode="&#x2264;" horiz-adv-x="352" 
d="M271 426q13 0 22 -9t9 -22q0 -9 -6 -17.5t-14 -12.5l-176 -98h-10v-11h10l176 -100q8 -4 14 -12.5t6 -17.5q0 -13 -9 -22t-22 -9l-174 93q-21 8 -34 28t-13 44q0 27 13.5 47.5t34.5 28.5zM79 0q-12 0 -20.5 9t-8.5 20q0 12 8.5 20.5t20.5 8.5h194q12 0 20.5 -8.5
t8.5 -20.5q0 -11 -8.5 -20t-20.5 -9h-194z" />
    <glyph glyph-name="greaterequal" unicode="&#x2265;" horiz-adv-x="352" 
d="M254 336q21 -8 34.5 -28.5t13.5 -47.5q0 -24 -13 -44t-34 -28l-174 -93q-13 0 -22 9t-9 22q0 9 6 17.5t14 12.5l176 100h10v11h-10l-176 98q-8 4 -14 12.5t-6 17.5q0 13 9 22t22 9zM79 0q-12 0 -20.5 9t-8.5 20q0 12 8.5 20.5t20.5 8.5h194q12 0 20.5 -8.5t8.5 -20.5
q0 -11 -8.5 -20t-20.5 -9h-194z" />
    <glyph glyph-name="lozenge" unicode="&#x25ca;" horiz-adv-x="364" 
d="M182 89l69 161l-68 164l-70 -164zM182 0q-14 0 -27 9t-18 23l-85 205q-2 4 -2 14q0 8 3 16l83 201q5 14 17.5 23t28.5 9t28.5 -9t17.5 -23l83 -201q3 -8 3 -16q0 -10 -2 -14l-85 -205q-5 -14 -17 -23t-28 -9z" />
    <glyph glyph-name="uni25CC" unicode="&#x25cc;" horiz-adv-x="512" 
 />
    <glyph glyph-name="Superstore" horiz-adv-x="605" 
d="M301 505q53 0 99 -20t80.5 -54.5t54.5 -80.5t20 -99q0 -52 -20 -97.5t-54.5 -79.5t-80.5 -54t-99 -20q-52 0 -97.5 20t-79.5 54t-54 79.5t-20 97.5q0 53 20 99t54 80.5t79.5 54.5t97.5 20zM408 90q14 0 23 5.5t9 21.5q0 17 -5.5 23.5t-18.5 6.5v133q0 26 -9.5 43
t-22.5 28q5 2 9.5 2h9.5h9.5t9.5 -2h11v65q-31 -4 -61.5 -11.5t-53.5 -20.5q-9 2 -17 2h-20q-23 0 -44 -3t-44 -11v-63h6q19 6 39.5 11t36.5 5q9 0 21.5 -0.5t24.5 -4.5t20 -13t8 -25l-82 -8q-18 -2 -36 -6t-33 -14t-24 -27t-9 -45q0 -42 28.5 -67t73.5 -25q11 0 22 0.5
t21 2.5v54l-6 4q-7 -3 -12 -3.5t-11 -0.5q-16 0 -30.5 9t-14.5 32q0 8 3.5 13.5t15.5 9.5t34.5 8t59.5 10v-71q0 -36 10 -52t40 -16h9z" />
    </font>
</defs>
</svg>
